<?xml version="1.0" encoding="utf-8"?>
<!-- Generator: Adobe Illustrator 25.1.0, SVG Export Plug-In . SVG Version: 6.00 Build 0)  -->
<svg version="1.1" id="Livello_1" xmlns="http://www.w3.org/2000/svg" xmlns:xlink="http://www.w3.org/1999/xlink" x="0px" y="0px"
	 viewBox="0 0 159.65 160.93" style="enable-background:new 0 0 159.65 160.93;" xml:space="preserve">
<style type="text/css">
	.st0{fill:url(#SVGID_1_);}
	.st1{fill:url(#SVGID_2_);}
	.st2{fill:url(#SVGID_3_);}
	.st3{fill:url(#SVGID_4_);}
</style>
<g>
	<g>
		<linearGradient id="SVGID_1_" gradientUnits="userSpaceOnUse" x1="-3.7504" y1="159.6837" x2="119.0328" y2="50.0558">
			<stop  offset="0" style="stop-color:#662483"/>
			<stop  offset="1" style="stop-color:#D60B52"/>
		</linearGradient>
		<path class="st0" d="M27.23,65.86c-2.03-2.78-5.94-3.38-8.71-1.36c-2.78,2.03-3.39,5.94-1.36,8.71l57.17,78.31h15.44L27.23,65.86z
			"/>
		<linearGradient id="SVGID_2_" gradientUnits="userSpaceOnUse" x1="-0.3124" y1="163.5342" x2="122.4708" y2="53.9064">
			<stop  offset="0" style="stop-color:#662483"/>
			<stop  offset="1" style="stop-color:#D60B52"/>
		</linearGradient>
		<path class="st1" d="M66.34,78.6c-2.93-3.93-4.48-8.6-4.48-13.52c0-12.48,10.15-22.63,22.63-22.63c9.12,0,17.3,5.43,20.85,13.82
			c0.65,1.53,1.86,2.72,3.4,3.35c1.54,0.63,3.24,0.61,4.77-0.04c0.34-0.15,0.67-0.32,0.98-0.52c1.67,2.24,3.4,4.55,5.18,6.89
			c0.29,1.05,0.53,2.01,0.73,2.9c0.3,1.39,0.55,2.77,0.74,4.11c0.2,1.35,0.35,2.74,0.44,4.13c0.11,1.61,0.15,2.94,0.14,4.18l0,0.35
			c0,0.57,0.11,1.14,0.32,1.67c0.7,1.77,1.33,3.2,1.97,4.5c0.73,1.48,1.51,2.93,2.32,4.3c0.29,0.5,0.6,1.01,0.94,1.54
			c-1.06-0.04-2.06-0.12-3.04-0.25c-1.73-0.21-3.53-0.56-5.34-1.05c-0.86-0.24-1.78-0.5-2.67-0.82c-0.8-0.28-1.64-0.6-2.66-1.02
			l-11.47-4.71l9.57,7.88c0.79,0.65,1.65,1.28,2.55,1.88c0.72,0.48,1.68,1.1,2.71,1.64c1.83,1,3.8,1.86,5.88,2.55
			c2.1,0.69,4.22,1.2,6.3,1.51c1.1,0.17,2.2,0.29,3.25,0.36c1.04,0.06,2.13,0.09,3.28,0.07c0.75-0.01,1.47-0.23,2.11-0.61
			c0.95-0.58,1.62-1.5,1.88-2.58c0.26-1.08,0.09-2.21-0.49-3.16l-0.2-0.33c-0.73-1.2-1.43-2.43-2.08-3.65
			c-0.6-1.14-1.19-2.37-1.81-3.76c-0.55-1.22-1.07-2.51-1.54-3.82c-0.39-1.1-0.69-2.01-0.96-2.85c0.12-1.51,0.19-2.86,0.2-4.13
			c0.01-1.7-0.04-3.4-0.16-5.05c-0.12-1.69-0.32-3.39-0.59-5.06c-0.27-1.66-0.61-3.33-1.02-4.99c-0.16-0.65-0.45-1.28-0.83-1.82
			l-0.11-0.15c-3.27-4.68-6.03-8.61-8.88-12.53c-1.43-1.99-2.95-4.1-4.53-6.22c-0.53-0.72-1.06-1.44-1.6-2.17
			c-0.98-1.34-1.97-2.68-2.97-4.01l-4.62-6.14l-4.69-6.09L98,16.51l-5.01-6.26c-1.6-2-4.47-2.54-6.69-1.24
			c-2.48,1.45-3.32,4.64-1.87,7.12l1.37,2.35c1.14,1.97,2.32,4,3.51,5.98c1.19,2.01,2.46,4.11,4.02,6.65
			c-2.87-0.75-5.83-1.12-8.85-1.12c-16.49,0-30.46,11.31-34.15,26.96L39.16,41.82c-2.04-2.76-5.96-3.35-8.72-1.31
			c-2.76,2.04-3.35,5.96-1.31,8.72l62.78,84.97c2.97,3.94,4.53,8.64,4.53,13.59c0,1.26-0.11,2.51-0.31,3.73h24.09L66.34,78.6z"/>
		<linearGradient id="SVGID_3_" gradientUnits="userSpaceOnUse" x1="0.673" y1="167.4326" x2="123.4562" y2="57.8047">
			<stop  offset="0" style="stop-color:#662483"/>
			<stop  offset="1" style="stop-color:#D60B52"/>
		</linearGradient>
		<path class="st2" d="M108.13,83.23c0.35,0.11,0.72,0.17,1.08,0.17c0.6,0,1.19-0.15,1.72-0.45l5.07-2.84
			c0.97-0.55,1.62-1.49,1.77-2.6c0.15-1.11-0.22-2.19-1.02-2.98l-11.75-11.59c-1.23-1.22-3.08-1.37-4.5-0.38
			c-1.42,1-1.9,2.79-1.17,4.36l6.68,14.44C106.43,82.24,107.2,82.92,108.13,83.23z"/>
		<linearGradient id="SVGID_4_" gradientUnits="userSpaceOnUse" x1="-1.947" y1="161.8394" x2="120.8362" y2="52.2115">
			<stop  offset="0" style="stop-color:#662483"/>
			<stop  offset="1" style="stop-color:#D60B52"/>
		</linearGradient>
		<path class="st3" d="M33.58,147.09c0.85,0.84,1.94,1.27,3.05,1.27c0.87,0,1.74-0.27,2.52-0.81c1.75-1.23,2.35-3.45,1.45-5.39
			l-10.05-21.71c-0.51-1.1-1.46-1.94-2.61-2.31c-1.15-0.37-2.41-0.25-3.47,0.35l-7.62,4.27c-1.2,0.68-2,1.85-2.19,3.22
			c-0.18,1.37,0.27,2.71,1.26,3.68L33.58,147.09z"/>
	</g>
</g>
</svg>
