<?xml version="1.0" encoding="utf-8"?>
<!-- Generator: Adobe Illustrator 28.2.0, SVG Export Plug-In . SVG Version: 6.00 Build 0)  -->
<svg version="1.1" id="Livello_1" xmlns="http://www.w3.org/2000/svg" xmlns:xlink="http://www.w3.org/1999/xlink" x="0px" y="0px"
	 viewBox="0 0 841.9 595.3" style="enable-background:new 0 0 841.9 595.3;" xml:space="preserve">
<style type="text/css">
	.st0{fill:#FFFFFF;}
	.st1{fill:url(#SVGID_1_);}
	.st2{fill:url(#SVGID_00000005957427313854132590000013520482779675611270_);}
	.st3{fill:url(#SVGID_00000053524305525835654440000012473876680920487821_);}
	.st4{fill:url(#SVGID_00000012458868369472221530000017491605893030607260_);}
</style>
<g>
	<path class="st0" d="M252.2,300.9l13.7,9l-0.1,0.1c-3,5.1-6.9,9-12,11.9c-5,2.9-10.4,4.3-16.3,4.3c-4.6,0-8.8-0.9-12.8-2.6
		s-7.4-4.1-10.4-7c-3-3-5.3-6.4-7-10.4s-2.6-8.2-2.6-12.7s0.9-8.7,2.6-12.7c1.7-4,4.1-7.4,7-10.4c3-3,6.4-5.3,10.4-7
		s8.2-2.6,12.8-2.6c5.8,0,11.2,1.4,16.3,4.3c5,2.9,9,6.8,12,11.9l0.1,0.1l-13.8,9L252,286c-1.4-3.1-3.3-5.7-5.9-7.6
		c-2.6-1.9-5.4-2.9-8.5-2.9c-2.3,0-4.4,0.5-6.4,1.5s-3.7,2.3-5.1,3.9c-1.4,1.6-2.6,3.5-3.4,5.7c-0.8,2.2-1.3,4.5-1.3,6.9
		s0.4,4.7,1.3,6.8c0.8,2.1,2,3.9,3.4,5.5s3.1,2.8,5.1,3.7c2,0.9,4.1,1.3,6.4,1.3c3.1,0,6-0.9,8.5-2.6c2.6-1.7,4.5-4.2,5.9-7.3
		l0.1-0.3L252.2,300.9z"/>
	<path class="st0" d="M302.5,260.8c4.6,0,8.8,0.9,12.8,2.6s7.4,4.1,10.4,7c3,3,5.3,6.4,7,10.4s2.6,8.2,2.6,12.7s-0.9,8.7-2.6,12.7
		s-4.1,7.4-7,10.4c-3,3-6.4,5.3-10.4,7s-8.2,2.6-12.8,2.6c-4.6,0-8.8-0.9-12.8-2.6s-7.4-4.1-10.4-7c-3-3-5.3-6.4-7-10.4
		s-2.6-8.2-2.6-12.7s0.9-8.7,2.6-12.7s4.1-7.4,7-10.4c3-3,6.4-5.3,10.4-7C293.7,261.7,297.9,260.8,302.5,260.8z M302.5,311.1
		c2.1,0,4.1-0.5,5.9-1.4s3.4-2.2,4.8-3.9c1.4-1.6,2.5-3.5,3.3-5.7s1.2-4.5,1.2-7c0-2.4-0.4-4.6-1.2-6.8c-0.8-2.2-1.9-4-3.3-5.6
		s-3-2.8-4.8-3.7c-1.8-0.9-3.8-1.4-5.9-1.4s-4.1,0.5-6,1.4s-3.5,2.2-4.9,3.7c-1.4,1.6-2.5,3.4-3.3,5.6s-1.2,4.4-1.2,6.8
		c0,2.5,0.4,4.9,1.2,7c0.8,2.2,1.9,4.1,3.3,5.7s3,2.9,4.9,3.9C298.4,310.6,300.4,311.1,302.5,311.1z"/>
	<path class="st0" d="M369.1,287.5c2.8,0.9,5.3,1.9,7.7,2.8c2.3,1,4.3,2.1,6.1,3.5c1.7,1.4,3.1,3,4.1,4.9s1.5,4.2,1.5,6.8v0.1
		c0,6.4-2.1,11.4-6.4,15.1c-4.3,3.6-10.2,5.4-17.9,5.4c-4.8,0-9.5-0.8-14.2-2.5c-4.6-1.7-9-4-13-7.1l-0.1-0.1l0.1-0.1l8.6-13.6
		l0.1,0.1c2.5,2.7,5.4,4.7,8.6,6.1s6.6,2.1,10.3,2.1c5,0,7.5-1.6,7.5-4.8c0-1.5-0.8-2.7-2.4-3.4c-1.6-0.8-3.5-1.5-5.7-2.1
		c-0.4-0.2-0.8-0.3-1.2-0.3c-0.4,0-0.8-0.1-1.2-0.3c-2.5-0.7-5.1-1.4-7.6-2.2c-2.5-0.8-4.8-1.9-6.8-3.3s-3.7-3.2-5-5.3
		c-1.3-2.1-2-4.9-2-8.3v-0.3c0-2.9,0.5-5.6,1.6-8.1c1.1-2.4,2.7-4.5,4.7-6.3s4.5-3.1,7.3-4.1c2.9-1,6-1.5,9.5-1.5
		c4.1,0,8.1,0.6,12.3,1.8c4.1,1.2,8,3,11.5,5.4v0.3l-7.7,14.1l-0.1-0.1c-1.9-1.9-4.3-3.5-7.2-4.6c-2.9-1.1-5.9-1.7-9.1-1.7
		c-0.6,0-1.3,0-2,0.1c-0.8,0.1-1.5,0.3-2.1,0.6c-0.6,0.3-1.2,0.8-1.6,1.3c-0.4,0.6-0.6,1.3-0.6,2.3c0,0.8,0.3,1.5,1,2.1
		s1.5,1.2,2.6,1.8c1.1,0.5,2.2,1.1,3.5,1.6s2.6,1,3.9,1.4c0.3,0,0.5,0,0.8,0.1C368.5,287.4,368.8,287.4,369.1,287.5z"/>
	<path class="st0" d="M439.8,300.9l13.7,9l-0.1,0.1c-3,5.1-6.9,9-12,11.9c-5,2.9-10.4,4.3-16.3,4.3c-4.6,0-8.8-0.9-12.8-2.6
		s-7.4-4.1-10.4-7c-3-3-5.3-6.4-7-10.4s-2.6-8.2-2.6-12.7s0.9-8.7,2.6-12.7s4.1-7.4,7-10.4c3-3,6.4-5.3,10.4-7s8.2-2.6,12.8-2.6
		c5.8,0,11.2,1.4,16.3,4.3c5,2.9,9,6.8,12,11.9l0.1,0.1l-13.8,9l-0.1-0.1c-1.4-3.1-3.3-5.7-5.9-7.6s-5.4-2.9-8.5-2.9
		c-2.3,0-4.4,0.5-6.4,1.5s-3.7,2.3-5.1,3.9s-2.6,3.5-3.4,5.7s-1.3,4.5-1.3,6.9s0.4,4.7,1.3,6.8c0.8,2.1,2,3.9,3.4,5.5
		s3.1,2.8,5.1,3.7c2,0.9,4.1,1.3,6.4,1.3c3.1,0,6-0.9,8.5-2.6c2.6-1.7,4.5-4.2,5.9-7.3l0.1-0.3L439.8,300.9z"/>
	<path class="st0" d="M522.8,261.8v63.3h-16.6v-31.7c0-2.5-0.5-4.7-1.4-6.9c-0.9-2.1-2.2-4-3.9-5.6c-1.6-1.6-3.5-2.9-5.7-3.7
		c-2.2-0.9-4.4-1.3-6.8-1.3s-4.7,0.5-6.8,1.4c-2.1,0.9-4,2.2-5.6,3.7s-2.9,3.4-3.9,5.6c-0.9,2.2-1.4,4.5-1.4,6.9s0.5,4.6,1.4,6.7
		s2.2,4,3.9,5.6c1.6,1.6,3.5,2.9,5.6,3.8s4.4,1.4,6.8,1.4c2.6,0,4.9-0.5,6.7-1.4h0.1v0.3l6.3,11.3l-0.1,0.1
		c-4.1,3.2-9.2,4.8-15.3,4.8c-4.5,0-8.7-0.8-12.7-2.5s-7.4-4-10.4-7s-5.3-6.4-7-10.4s-2.6-8.2-2.6-12.7c0-4.6,0.9-8.8,2.6-12.8
		s4.1-7.4,7-10.4c3-3,6.4-5.3,10.4-7s8.2-2.6,12.7-2.6c4.4,0,8.2,0.8,11.5,2.4s6.1,4,8.5,7.1v-8.5h16.7V261.8z"/>
	<path class="st0" d="M548.5,236.5v88.6h-16.8l0.1-88.6H548.5z"/>
	<path class="st0" d="M556.1,236.5h16.8v14.8h-16.8V236.5z M556.1,325.1v-63.3h16.8v63.3H556.1z"/>
	<path class="st0" d="M617.1,261.1c4.5,0,8.7,0.8,12.7,2.5s7.4,4,10.4,7s5.3,6.4,7,10.4s2.6,8.2,2.6,12.7s-0.9,8.7-2.6,12.7
		c-1.7,4-4.1,7.4-7,10.4c-3,3-6.4,5.3-10.4,7s-8.2,2.5-12.7,2.5c-8.7,0-15.3-3.2-19.9-9.6v8.6h-16.7v-88.6h16.8v57.1
		c0,2.4,0.5,4.7,1.4,6.8c0.9,2.1,2.2,3.9,3.7,5.5c1.6,1.6,3.4,2.8,5.6,3.7c2.2,0.9,4.5,1.4,6.9,1.4s4.6-0.5,6.8-1.4s4-2.2,5.6-3.7
		c1.6-1.6,2.8-3.4,3.7-5.5s1.4-4.4,1.4-6.8s-0.5-4.7-1.4-6.8c-0.9-2.1-2.2-4-3.7-5.6c-1.6-1.6-3.4-2.8-5.6-3.7
		c-2.2-0.9-4.4-1.3-6.8-1.3c-2.3,0-4.6,0.5-6.8,1.4l-0.1,0.1l-0.1-0.3l-6.2-11.4l0.1-0.1C605.9,262.7,611,261.1,617.1,261.1z"/>
	<path class="st0" d="M687.7,260.8c4.5,0,8.7,0.9,12.7,2.6s7.4,4.1,10.4,7c3,3,5.3,6.4,7,10.4s2.6,8.2,2.6,12.8
		c0,2.4-0.3,4.8-0.8,7.1l-0.1,0.3h-32.2l-8.1-12.9h24.1c-1.2-3.5-3.1-6.5-5.9-8.7c-2.7-2.3-6-3.4-9.7-3.4c-2.3,0-4.4,0.5-6.5,1.4
		c-2,0.9-3.8,2.2-5.3,3.7c-1.5,1.6-2.6,3.4-3.5,5.6c-0.8,2.1-1.3,4.5-1.3,7c0,1.9,0.4,3.9,1.1,6c0.8,2.1,1.9,3.9,3.3,5.6
		c1.4,1.7,3.2,3.1,5.2,4.2s4.3,1.7,6.8,1.7c2.3,0,4.4-0.3,6.3-0.9c1.9-0.6,3.7-2,5.4-4.2l0.1-0.1l0.3,0.1l14.7,6.5l-0.3,0.3
		c-3,4.3-6.9,7.6-11.6,10c-4.7,2.4-9.6,3.6-14.9,3.6c-4.6,0-8.8-0.8-12.9-2.5c-4-1.7-7.5-4-10.4-7c-3-3-5.3-6.4-7-10.4
		s-2.6-8.2-2.6-12.7c0-4.6,0.9-8.8,2.6-12.8c1.7-4,4.1-7.4,7-10.4c3-3,6.4-5.3,10.4-7C678.9,261.7,683.2,260.8,687.7,260.8z"/>
	<path class="st0" d="M778.4,264.4l-1.5,2.5l-6.5,11.5l-0.1-0.1c-2.8-1.6-5.8-2.4-9-2.4c-2.2,0-4.3,0.4-6.2,1.1s-3.7,1.7-5.2,3
		s-2.8,2.8-3.9,4.6c-1.1,1.8-1.8,3.7-2.1,5.7v34.8h-17.2v-63.3H744v8.2c4.5-6.2,11-9.2,19.6-9.2c5.1,0,10,1.2,14.7,3.5L778.4,264.4
		L778.4,264.4z"/>
</g>
<g>
	<path class="st0" d="M205.4,358l3-3c0.8,1.2,2.3,1.9,3.8,1.9c1.1,0,2.1-0.4,2.1-1.2c0-1-1.9-1.8-3.8-2.7c-2.4-1-4.5-2.6-4.5-5.5
		c0-3.3,3.1-5.6,6.7-5.6c2.9,0,5.1,1.4,5.9,3.2l-2.9,2.8c-0.6-1-2-1.4-2.9-1.4c-1,0-1.8,0.5-1.8,1.2c0,0.9,1.3,1.2,3.4,2
		c3,1.2,4.9,3.1,4.9,5.9c0,3.6-3.4,5.9-7.2,5.9C209.2,361.4,206.3,360,205.4,358z"/>
	<path class="st0" d="M225.7,351.7c0-5.6,4.5-9.9,10.4-9.9c2.4,0,5.1,1.1,7,2.9l-2.9,3.7c-1.2-1.1-2.7-1.8-4.1-1.8
		c-2.9,0-5.3,2.2-5.3,5.1s2.5,5.1,5.2,5.1c1.6,0,3-0.8,4.2-1.8l2.9,3.8c-1.8,1.6-4.2,2.8-7.1,2.8
		C230.7,361.6,225.7,357.6,225.7,351.7z"/>
	<path class="st0" d="M262.3,359h-7.1l-1,2.2h-5.5l8.8-19.2h2.4l8.8,19.2h-5.5L262.3,359z M260.7,355.3l-1.9-4.5l-2,4.5H260.7z"/>
	<path class="st0" d="M287.7,356.4v4.7h-12.3v-18.9h5v14.2L287.7,356.4L287.7,356.4z"/>
	<path class="st0" d="M299.6,346.9v2.6h6v4.2h-6v2.7h7.3v4.7h-12.3v-18.9h12.3v4.7L299.6,346.9L299.6,346.9z"/>
	<path class="st0" d="M326.7,342.2h5v18.9h-5V342.2z"/>
	<path class="st0" d="M352.8,346.9h-4.5v14.2h-5v-14.2h-4.5v-4.7h14.1v4.7H352.8z"/>
	<path class="st0" d="M357.5,364.8c0.8,0,2.3-0.6,2.3-2.2c0-0.5-0.1-0.7-0.2-0.9c-1.1,0-2.3-1.1-2.3-2.6c0-1.6,1.4-3.1,3.3-3.1
		c2,0,3.3,1.6,3.3,4c0,2.8-1.6,5.7-4.4,5.7C358.3,365.7,357.5,365.1,357.5,364.8z"/>
	<path class="st0" d="M400.2,351.7c0,5.9-3.9,9.4-10.4,9.4h-6.2v-18.9h6.2C396.2,342.2,400.2,345.8,400.2,351.7z M395.1,351.7
		c0-3-2.1-4.8-5.5-4.8h-1.2v9.5h1.2C393.1,356.4,395.1,354.6,395.1,351.7z"/>
	<path class="st0" d="M412.4,346.9v2.6h6v4.2h-6v2.7h7.3v4.7h-12.3v-18.9h12.3v4.7L412.4,346.9L412.4,346.9z"/>
	<path class="st0" d="M426.4,358l3-3c0.8,1.2,2.3,1.9,3.8,1.9c1.1,0,2.1-0.4,2.1-1.2c0-1-1.9-1.8-3.8-2.7c-2.4-1-4.5-2.6-4.5-5.5
		c0-3.3,3.1-5.6,6.7-5.6c2.9,0,5.1,1.4,5.9,3.2l-2.9,2.8c-0.6-1-2-1.4-2.9-1.4c-1,0-1.8,0.5-1.8,1.2c0,0.9,1.3,1.2,3.4,2
		c3,1.2,4.9,3.1,4.9,5.9c0,3.6-3.4,5.9-7.2,5.9C430.1,361.4,427.3,360,426.4,358z"/>
	<path class="st0" d="M447.5,342.2h5v18.9h-5V342.2z"/>
	<path class="st0" d="M480.1,352.1c0,5.8-4.3,9.5-9.7,9.5c-6,0-10.6-4.5-10.6-9.9s4.6-10,10.4-10c2.4,0,5.2,1.1,6.8,2.5l-2.8,3.8
		c-1.1-1-2.6-1.6-4-1.6c-2.8,0-5.3,2.3-5.3,5.2c0,2.7,2.1,5.2,5.6,5.2c2.3,0,3.9-1.1,4-2.9h-4.3v-3.7h9.7
		C480.1,350.9,480.1,351.5,480.1,352.1z"/>
	<path class="st0" d="M503.8,342.2v19.2h-1.6l-9.7-9.4v9.3h-5V342h1.6l9.7,9.4v-9.2L503.8,342.2L503.8,342.2z"/>
	<path class="st0" d="M524,342.2h5v18.9h-5V342.2z"/>
	<path class="st0" d="M550.1,346.9h-4.5v14.2h-5v-14.2H536v-4.7h14.1V346.9z"/>
	<path class="st0" d="M554.8,364.8c0.8,0,2.3-0.6,2.3-2.2c0-0.5-0.1-0.7-0.2-0.9c-1.1,0-2.3-1.1-2.3-2.6c0-1.6,1.4-3.1,3.3-3.1
		c2,0,3.3,1.6,3.3,4c0,2.8-1.6,5.7-4.4,5.7C555.6,365.7,554.8,365.1,554.8,364.8z"/>
	<path class="st0" d="M580.1,351.7c0-5.6,4.5-9.9,10.4-9.9c2.4,0,5.1,1.1,7,2.9l-2.9,3.7c-1.2-1.1-2.7-1.8-4.1-1.8
		c-2.9,0-5.3,2.2-5.3,5.1s2.5,5.1,5.2,5.1c1.6,0,3-0.8,4.2-1.8l2.9,3.8c-1.8,1.6-4.2,2.8-7.1,2.8
		C585.1,361.6,580.1,357.6,580.1,351.7z"/>
	<path class="st0" d="M602.9,351.7c0-5.7,4.5-10,10.4-10s10.4,4.3,10.4,10c0,5.6-4.5,9.9-10.4,9.9S602.9,357.4,602.9,351.7z
		 M618.6,351.7c0-2.9-2.3-5.2-5.3-5.2s-5.3,2.3-5.3,5.2c0,2.9,2.3,5.2,5.3,5.2S618.6,354.6,618.6,351.7z"/>
	<path class="st0" d="M630,358l3-3c0.8,1.2,2.3,1.9,3.8,1.9c1.1,0,2.1-0.4,2.1-1.2c0-1-1.9-1.8-3.8-2.7c-2.4-1-4.5-2.6-4.5-5.5
		c0-3.3,3.1-5.6,6.7-5.6c2.9,0,5.1,1.4,5.9,3.2l-2.9,2.8c-0.6-1-2-1.4-2.9-1.4c-1,0-1.8,0.5-1.8,1.2c0,0.9,1.3,1.2,3.4,2
		c3,1.2,4.9,3.1,4.9,5.9c0,3.6-3.4,5.9-7.2,5.9C633.8,361.4,630.9,360,630,358z"/>
	<path class="st0" d="M651.2,342.2h7.2c3.9,0,7.2,2.9,7.2,6.6s-3.2,6.7-7.2,6.7h-2.1v5.6h-5v-18.9H651.2z M660.6,348.9
		c0-1.2-1-2-2.3-2h-2.1v4.1h2.1C659.7,351,660.6,350,660.6,348.9z"/>
	<path class="st0" d="M684.7,356.4v4.7h-12.3v-18.9h5v14.2L684.7,356.4L684.7,356.4z"/>
	<path class="st0" d="M703.8,359h-7.1l-1,2.2h-5.5L699,342h2.4l8.8,19.2h-5.5L703.8,359z M702.2,355.3l-1.9-4.5l-2,4.5H702.2z"/>
	<path class="st0" d="M717.3,353l-5.8-10.8h5.7l2.6,5.5l2.6-5.5h5.7l-5.9,10.8v8.2h-5V353H717.3z"/>
	<path class="st0" d="M747,342.2h5v18.9h-5V342.2z"/>
	<path class="st0" d="M773.1,346.9h-4.5v14.2h-5v-14.2H759v-4.7h14.1V346.9z"/>
</g>
<g>
	
		<linearGradient id="SVGID_1_" gradientUnits="userSpaceOnUse" x1="46.5679" y1="229.3827" x2="158.296" y2="329.1399" gradientTransform="matrix(1 0 0 -1 0 598)">
		<stop  offset="0" style="stop-color:#662483"/>
		<stop  offset="1" style="stop-color:#D60B52"/>
	</linearGradient>
	<path class="st1" d="M74.7,283.2c-1.8-2.5-5.4-3.1-7.9-1.2c-2.5,1.8-3.1,5.4-1.2,7.9l52,71.3h14.1L74.7,283.2z"/>
	
		<linearGradient id="SVGID_00000000199852689086696830000003422823946643293366_" gradientUnits="userSpaceOnUse" x1="49.4081" y1="226.2018" x2="161.1361" y2="325.9589" gradientTransform="matrix(1 0 0 -1 0 598)">
		<stop  offset="0" style="stop-color:#662483"/>
		<stop  offset="1" style="stop-color:#D60B52"/>
	</linearGradient>
	<path style="fill:url(#SVGID_00000000199852689086696830000003422823946643293366_);" d="M110.3,294.8c-2.7-3.6-4.1-7.8-4.1-12.3
		c0-11.4,9.2-20.6,20.6-20.6c8.3,0,15.7,4.9,19,12.6c0.6,1.4,1.7,2.5,3.1,3c1.4,0.6,2.9,0.6,4.3,0c0.3-0.1,0.6-0.3,0.9-0.5
		c1.5,2,3.1,4.1,4.7,6.3c0.3,1,0.5,1.8,0.7,2.6c0.3,1.3,0.5,2.5,0.7,3.7s0.3,2.5,0.4,3.8c0.1,1.5,0.1,2.7,0.1,3.8v0.3
		c0,0.5,0.1,1,0.3,1.5c0.6,1.6,1.2,2.9,1.8,4.1c0.7,1.3,1.4,2.7,2.1,3.9c0.3,0.5,0.5,0.9,0.9,1.4c-1,0-1.9-0.1-2.8-0.2
		c-1.6-0.2-3.2-0.5-4.9-1c-0.8-0.2-1.6-0.5-2.4-0.7c-0.7-0.3-1.5-0.5-2.4-0.9l-10.4-4.3l8.7,7.2c0.7,0.6,1.5,1.2,2.3,1.7
		c0.7,0.4,1.5,1,2.5,1.5c1.7,0.9,3.5,1.7,5.3,2.3c1.9,0.6,3.8,1.1,5.7,1.4c1,0.2,2,0.3,3,0.3c0.9,0.1,1.9,0.1,3,0.1
		c0.7,0,1.3-0.2,1.9-0.6c0.9-0.5,1.5-1.4,1.7-2.4s0.1-2-0.5-2.9l-0.2-0.3c-0.7-1.1-1.3-2.2-1.9-3.3c-0.5-1-1.1-2.2-1.6-3.4
		c-0.5-1.1-1-2.3-1.4-3.5c-0.4-1-0.6-1.8-0.9-2.6c0.1-1.4,0.2-2.6,0.2-3.8c0-1.5,0-3.1-0.1-4.6s-0.3-3.1-0.5-4.6s-0.6-3-0.9-4.5
		c-0.1-0.6-0.4-1.2-0.8-1.7l-0.1-0.1c-3-4.3-5.5-7.8-8.1-11.4c-1.3-1.8-2.7-3.7-4.1-5.7c-0.5-0.7-1-1.3-1.5-2
		c-0.9-1.2-1.8-2.4-2.7-3.7l-4.2-5.6l-4.3-5.5l-4.3-5.5l-4.6-5.7c-1.5-1.8-4.1-2.3-6.1-1.1c-2.3,1.3-3,4.2-1.7,6.5l1.2,2.1
		c1,1.8,2.1,3.6,3.2,5.4c1.1,1.8,2.2,3.7,3.7,6c-2.6-0.7-5.3-1-8.1-1c-15,0-27.7,10.3-31.1,24.5L85.4,261c-1.9-2.5-5.4-3.1-7.9-1.2
		s-3,5.4-1.2,7.9l57.1,77.3c2.7,3.6,4.1,7.9,4.1,12.4c0,1.1-0.1,2.3-0.3,3.4h21.9L110.3,294.8z"/>
	
		<linearGradient id="SVGID_00000020370232578671379180000009014097657659091853_" gradientUnits="userSpaceOnUse" x1="50.6071" y1="222.3156" x2="162.3351" y2="322.0728" gradientTransform="matrix(1 0 0 -1 0 598)">
		<stop  offset="0" style="stop-color:#662483"/>
		<stop  offset="1" style="stop-color:#D60B52"/>
	</linearGradient>
	<path style="fill:url(#SVGID_00000020370232578671379180000009014097657659091853_);" d="M148.4,299c0.3,0.1,0.7,0.2,1,0.2
		c0.5,0,1.1-0.1,1.6-0.4l4.6-2.6c0.9-0.5,1.5-1.4,1.6-2.4s-0.2-2-0.9-2.7l-10.7-10.6c-1.1-1.1-2.8-1.2-4.1-0.3
		c-1.3,0.9-1.7,2.5-1.1,4l6.1,13.1C146.8,298.1,147.5,298.7,148.4,299z"/>
	
		<linearGradient id="SVGID_00000055665821603553289330000009875827070837078966_" gradientUnits="userSpaceOnUse" x1="48.2087" y1="227.4213" x2="159.9368" y2="327.1785" gradientTransform="matrix(1 0 0 -1 0 598)">
		<stop  offset="0" style="stop-color:#662483"/>
		<stop  offset="1" style="stop-color:#D60B52"/>
	</linearGradient>
	<path style="fill:url(#SVGID_00000055665821603553289330000009875827070837078966_);" d="M80.5,357.1c0.8,0.8,1.8,1.2,2.8,1.2
		c0.8,0,1.6-0.2,2.3-0.7c1.6-1.1,2.1-3.1,1.3-4.9l-9.1-19.8c-0.5-1-1.3-1.8-2.4-2.1c-1-0.3-2.2-0.2-3.2,0.3l-6.9,3.9
		c-1.1,0.6-1.8,1.7-2,2.9c-0.2,1.2,0.2,2.5,1.1,3.3L80.5,357.1z"/>
</g>
</svg>
