<svg xmlns="http://www.w3.org/2000/svg" xmlns:xlink="http://www.w3.org/1999/xlink" version="1.1" x="0px" y="0px" viewBox="0 0 100 100" enable-background="new 0 0 100 100" xml:space="preserve"><path d="M50,94.973C25.202,94.973,5.027,74.798,5.027,50S25.202,5.027,50,5.027S94.973,25.202,94.973,50S74.798,94.973,50,94.973z   M50,8.027C26.856,8.027,8.027,26.856,8.027,50S26.856,91.973,50,91.973S91.973,73.144,91.973,50S73.144,8.027,50,8.027z"/><circle cx="50" cy="50" r="5.172"/><path d="M75.297,62.687C77.22,58.868,78.31,54.56,78.31,50c0-13.923-10.105-25.522-23.365-27.869c-0.454-2.19-2.32-3.86-4.62-3.999  c0.28-2.13,1.9-3.85,3.99-4.28c-0.09-0.01-0.17-0.01-0.26-0.01c-4.757,0-8.659,3.651-9.069,8.301  C31.76,24.518,21.69,36.101,21.69,50c0,4.578,1.099,8.901,3.036,12.732c-1.485,1.676-1.705,4.173-0.438,6.099  c-1.873,1.052-4.221,0.785-5.817-0.631c0.046,0.078,0.094,0.142,0.148,0.214c2.853,3.813,8.12,4.748,12.091,2.281  C35.77,75.414,42.552,78.31,50,78.31c7.465,0,14.26-2.909,19.324-7.648c2.028,0.959,4.491,0.467,5.985-1.294  c1.537,1.501,1.942,3.829,1.033,5.759c0.062-0.066,0.11-0.13,0.164-0.202C79.359,71.117,78.776,65.803,75.297,62.687z   M32.269,69.419c1.576-1.752,1.762-4.411,0.297-6.369c-1.473-1.969-4.081-2.54-6.21-1.523C24.651,58.044,23.69,54.133,23.69,50  c0-12.823,9.223-23.526,21.382-25.84c0.455,2.316,2.475,4.062,4.923,4.062c2.459,0,4.48-1.747,4.94-4.061  C67.09,26.478,76.31,37.18,76.31,50c0,4.141-0.965,8.06-2.677,11.549c-2.126-1.024-4.734-0.454-6.202,1.505  c-1.473,1.966-1.288,4.625,0.283,6.381C63.036,73.703,56.817,76.31,50,76.31C43.175,76.31,36.949,73.697,32.269,69.419z"/></svg>