<svg xmlns="http://www.w3.org/2000/svg" xmlns:xlink="http://www.w3.org/1999/xlink" version="1.1" x="0px" y="0px" viewBox="0 0 100 100" enable-background="new 0 0 100 100" xml:space="preserve"><g><path d="M50,94.973C25.202,94.973,5.027,74.798,5.027,50S25.202,5.027,50,5.027S94.973,25.202,94.973,50S74.798,94.973,50,94.973z    M50,8.027C26.856,8.027,8.027,26.856,8.027,50S26.856,91.973,50,91.973S91.973,73.144,91.973,50S73.144,8.027,50,8.027z"/></g><circle cx="50" cy="50" r="5.172"/><path d="M79.71,30.078c-0.033-0.084-0.07-0.155-0.112-0.235c-2.331-4.457-7.838-6.181-12.295-3.85l-0.186,0.097  c-0.168,0.088-0.332,0.185-0.487,0.3c-0.172,0.115-0.32,0.252-0.473,0.384C61.572,23.574,56.003,21.69,50,21.69  c-15.61,0-28.31,12.7-28.31,28.31c0,6.029,1.9,11.619,5.125,16.216c-1.008,1.406-1.272,3.273-0.533,4.951  c-2.022,0.726-4.293,0.072-5.631-1.59c0.032,0.085,0.069,0.156,0.11,0.236c2.301,4.473,7.796,6.234,12.269,3.932l0.187-0.096  c0.169-0.087,0.333-0.183,0.489-0.296c0.054-0.035,0.096-0.082,0.149-0.119C38.437,76.429,44.001,78.31,50,78.31  c15.61,0,28.31-12.7,28.31-28.31c0-5.981-1.869-11.531-5.047-16.106c1.261-1.444,1.63-3.529,0.805-5.368  C76.085,27.787,78.36,28.425,79.71,30.078z M50,76.31c-5.476,0-10.565-1.683-14.78-4.557c0.876-1.447,1.017-3.293,0.185-4.91  c-1.176-2.285-3.831-3.292-6.178-2.455c-0.209,0.074-0.432,0.166-0.636,0.271c-0.106,0.055-0.194,0.129-0.295,0.189  C25.393,60.62,23.69,55.506,23.69,50c0-14.507,11.803-26.31,26.31-26.31c5.539,0,10.681,1.725,14.925,4.66  c-0.685,1.393-0.726,3.078,0.049,4.56c1.191,2.277,3.853,3.266,6.194,2.414c0.166-0.06,0.337-0.138,0.503-0.218  C74.594,39.344,76.31,44.474,76.31,50C76.31,64.507,64.507,76.31,50,76.31z"/></svg>