<svg
  xmlns="http://www.w3.org/2000/svg"
  viewBox="0 0 100 100"
>
  <path d="M50,21.69c-15.61,0-28.31,12.7-28.31,28.31c0,6.023,1.896,11.608,5.115,16.202c-1.012,1.416-1.272,3.3-0.515,4.988  c-2.02,0.73-4.29,0.1-5.64-1.56c0.03,0.09,0.07,0.16,0.11,0.24c2.33,4.46,7.84,6.18,12.29,3.85l0.19-0.1  c0.17-0.09,0.33-0.18,0.49-0.3c0.041-0.028,0.073-0.064,0.114-0.093C38.429,76.427,43.997,78.31,50,78.31  c15.61,0,28.31-12.7,28.31-28.31S65.61,21.69,50,21.69z M50,76.31c-5.48,0-10.572-1.686-14.79-4.563  c0.885-1.459,1.023-3.325,0.17-4.947c-1.19-2.28-3.85-3.27-6.19-2.41c-0.21,0.07-0.43,0.17-0.64,0.27  c-0.096,0.05-0.174,0.118-0.266,0.173C25.388,60.607,23.69,55.499,23.69,50c0-14.507,11.803-26.31,26.31-26.31  S76.31,35.493,76.31,50S64.507,76.31,50,76.31z"/>
  <path d="M50,5.027C25.202,5.027,5.027,25.202,5.027,50S25.202,94.973,50,94.973S94.973,74.798,94.973,50S74.798,5.027,50,5.027z   M50,91.973C26.856,91.973,8.027,73.144,8.027,50S26.856,8.027,50,8.027S91.973,26.856,91.973,50S73.144,91.973,50,91.973z"/>
  <circle cx="50" cy="50" r="5.172"/>
</svg>