<?xml version="1.0" encoding="utf-8"?>
<!-- Generator: Adobe Illustrator 25.1.0, SVG Export Plug-In . SVG Version: 6.00 Build 0)  -->
<svg version="1.1" id="Livello_1" xmlns="http://www.w3.org/2000/svg" xmlns:xlink="http://www.w3.org/1999/xlink" x="0px" y="0px"
	 viewBox="0 0 841.89 595.28" style="enable-background:new 0 0 841.89 595.28;" xml:space="preserve">
<style type="text/css">
	.st0{fill:#342C38;}
	.st1{fill:url(#SVGID_1_);}
	.st2{fill:url(#SVGID_2_);}
	.st3{fill:url(#SVGID_3_);}
	.st4{fill:url(#SVGID_4_);}
</style>
<g>
	<g>
		<path class="st0" d="M285.71,303.78l15.38,10.11l-0.14,0.14c-3.32,5.7-7.81,10.16-13.45,13.38c-5.65,3.23-11.75,4.84-18.3,4.84
			c-5.13,0-9.92-0.97-14.38-2.92c-4.46-1.94-8.35-4.58-11.67-7.9c-3.32-3.32-5.96-7.21-7.9-11.67c-1.95-4.46-2.92-9.21-2.92-14.24
			c0-5.03,0.97-9.77,2.92-14.24c1.94-4.46,4.58-8.35,7.9-11.67c3.32-3.32,7.21-5.95,11.67-7.9c4.46-1.94,9.25-2.92,14.38-2.92
			c6.55,0,12.65,1.61,18.3,4.84c5.65,3.23,10.13,7.69,13.45,13.38l0.14,0.14l-15.52,10.11l-0.14-0.14
			c-1.52-3.51-3.73-6.36-6.62-8.54c-2.9-2.18-6.1-3.27-9.61-3.27c-2.56,0-4.96,0.55-7.19,1.64c-2.23,1.09-4.15,2.56-5.77,4.41
			c-1.61,1.85-2.9,3.99-3.84,6.41c-0.95,2.42-1.42,5.01-1.42,7.76c0,2.75,0.47,5.32,1.42,7.69c0.95,2.37,2.23,4.44,3.84,6.19
			c1.61,1.76,3.53,3.13,5.77,4.13c2.23,1,4.63,1.49,7.19,1.49c3.51,0,6.71-0.97,9.61-2.92c2.89-1.94,5.1-4.67,6.62-8.19l0.14-0.28
			L285.71,303.78z"/>
		<path class="st0" d="M342.23,258.65c5.13,0,9.92,0.97,14.38,2.92c4.46,1.95,8.35,4.58,11.67,7.9c3.32,3.32,5.95,7.21,7.9,11.67
			c1.94,4.46,2.92,9.21,2.92,14.24c0,5.03-0.97,9.78-2.92,14.24c-1.95,4.46-4.58,8.35-7.9,11.67c-3.32,3.32-7.21,5.96-11.67,7.9
			c-4.46,1.94-9.25,2.92-14.38,2.92c-5.12,0-9.92-0.97-14.38-2.92c-4.46-1.94-8.35-4.58-11.67-7.9c-3.32-3.32-5.96-7.21-7.9-11.67
			c-1.95-4.46-2.92-9.21-2.92-14.24c0-5.03,0.97-9.77,2.92-14.24c1.94-4.46,4.58-8.35,7.9-11.67c3.32-3.32,7.21-5.96,11.67-7.9
			C332.31,259.62,337.11,258.65,342.23,258.65z M342.23,315.17c2.37,0,4.58-0.52,6.62-1.57c2.04-1.04,3.84-2.49,5.41-4.34
			c1.57-1.85,2.8-3.99,3.7-6.41c0.9-2.42,1.35-5.05,1.35-7.9c0-2.66-0.45-5.2-1.35-7.62c-0.9-2.42-2.14-4.51-3.7-6.26
			c-1.57-1.76-3.37-3.15-5.41-4.2c-2.04-1.04-4.25-1.57-6.62-1.57c-2.37,0-4.6,0.52-6.69,1.57c-2.09,1.05-3.91,2.44-5.48,4.2
			c-1.57,1.76-2.8,3.84-3.7,6.26c-0.9,2.42-1.35,4.96-1.35,7.62c0,2.85,0.45,5.48,1.35,7.9c0.9,2.42,2.14,4.56,3.7,6.41
			c1.57,1.85,3.39,3.3,5.48,4.34C337.63,314.65,339.86,315.17,342.23,315.17z"/>
		<path class="st0" d="M417.12,288.69c3.13,1.05,6,2.11,8.61,3.2c2.61,1.09,4.89,2.4,6.83,3.92c1.94,1.52,3.46,3.35,4.56,5.48
			c1.09,2.14,1.64,4.68,1.64,7.62v0.14c0,7.21-2.4,12.86-7.19,16.94c-4.79,4.08-11.51,6.12-20.15,6.12c-5.41,0-10.73-0.93-15.95-2.8
			c-5.22-1.87-10.11-4.52-14.66-7.97l-0.14-0.14l0.14-0.14l9.68-15.28l0.14,0.14c2.85,3.04,6.07,5.34,9.68,6.91
			c3.61,1.57,7.45,2.35,11.53,2.35c5.6,0,8.4-1.8,8.4-5.4c0-1.7-0.9-2.98-2.71-3.83c-1.8-0.85-3.94-1.66-6.41-2.42
			c-0.48-0.19-0.93-0.3-1.35-0.35c-0.43-0.05-0.88-0.16-1.35-0.36c-2.85-0.76-5.7-1.59-8.54-2.48c-2.85-0.9-5.41-2.13-7.69-3.69
			c-2.28-1.56-4.15-3.55-5.62-5.96c-1.47-2.41-2.21-5.51-2.21-9.3v-0.28c0-3.31,0.62-6.34,1.85-9.09c1.23-2.75,2.99-5.11,5.27-7.1
			c2.28-1.99,5.03-3.53,8.26-4.62c3.23-1.09,6.79-1.63,10.68-1.63c4.56,0,9.16,0.69,13.81,2.06c4.65,1.38,8.97,3.39,12.96,6.05v0.28
			l-8.68,15.8l-0.14-0.14c-2.18-2.18-4.89-3.91-8.12-5.2c-3.23-1.28-6.64-1.92-10.25-1.92c-0.66,0-1.42,0.05-2.28,0.14
			c-0.85,0.1-1.64,0.33-2.35,0.71c-0.71,0.38-1.31,0.88-1.78,1.49c-0.48,0.62-0.71,1.49-0.71,2.63c0,0.85,0.38,1.64,1.14,2.35
			c0.76,0.71,1.73,1.38,2.92,1.99c1.19,0.62,2.51,1.21,3.99,1.78c1.47,0.57,2.92,1.09,4.34,1.57c0.29,0,0.59,0.05,0.93,0.14
			C416.53,288.5,416.84,288.6,417.12,288.69z"/>
		<path class="st0" d="M496.7,303.78l15.38,10.11l-0.14,0.14c-3.32,5.7-7.81,10.16-13.45,13.38c-5.65,3.23-11.75,4.84-18.3,4.84
			c-5.12,0-9.92-0.97-14.38-2.92c-4.46-1.94-8.35-4.58-11.67-7.9c-3.32-3.32-5.96-7.21-7.9-11.67c-1.95-4.46-2.92-9.21-2.92-14.24
			c0-5.03,0.97-9.77,2.92-14.24c1.94-4.46,4.58-8.35,7.9-11.67c3.32-3.32,7.21-5.95,11.67-7.9c4.46-1.94,9.25-2.92,14.38-2.92
			c6.55,0,12.65,1.61,18.3,4.84c5.65,3.23,10.13,7.69,13.45,13.38l0.14,0.14l-15.52,10.11l-0.14-0.14
			c-1.52-3.51-3.73-6.36-6.62-8.54c-2.9-2.18-6.1-3.27-9.61-3.27c-2.56,0-4.96,0.55-7.19,1.64c-2.23,1.09-4.15,2.56-5.77,4.41
			c-1.62,1.85-2.9,3.99-3.84,6.41c-0.95,2.42-1.42,5.01-1.42,7.76c0,2.75,0.47,5.32,1.42,7.69c0.95,2.37,2.23,4.44,3.84,6.19
			c1.61,1.76,3.53,3.13,5.77,4.13c2.23,1,4.63,1.49,7.19,1.49c3.51,0,6.71-0.97,9.61-2.92c2.89-1.94,5.1-4.67,6.62-8.19l0.14-0.28
			L496.7,303.78z"/>
		<path class="st0" d="M589.96,259.79v71.19H571.3v-35.68c0-2.76-0.52-5.33-1.57-7.71c-1.05-2.38-2.49-4.47-4.34-6.28
			c-1.85-1.81-3.99-3.21-6.41-4.21c-2.42-1-4.96-1.5-7.62-1.5c-2.75,0-5.32,0.52-7.69,1.57c-2.37,1.05-4.48,2.45-6.33,4.22
			c-1.85,1.76-3.3,3.86-4.34,6.29c-1.05,2.43-1.57,5.02-1.57,7.79c0,2.67,0.52,5.19,1.57,7.57c1.04,2.38,2.49,4.48,4.34,6.29
			s3.96,3.24,6.33,4.29c2.37,1.05,4.93,1.57,7.69,1.57c2.94,0,5.46-0.52,7.55-1.57h0.14v0.28l7.12,12.67l-0.14,0.14
			c-4.65,3.61-10.39,5.41-17.23,5.41c-5.03,0-9.78-0.95-14.24-2.85c-4.46-1.9-8.35-4.51-11.67-7.83c-3.32-3.32-5.96-7.21-7.9-11.67
			c-1.95-4.46-2.92-9.21-2.92-14.24c0-5.13,0.97-9.92,2.92-14.38c1.94-4.46,4.58-8.35,7.9-11.67c3.32-3.32,7.21-5.96,11.67-7.9
			c4.46-1.94,9.2-2.92,14.24-2.92c4.93,0,9.25,0.92,12.96,2.75c3.7,1.84,6.88,4.49,9.54,7.98v-9.59H589.96z"/>
		<path class="st0" d="M618.86,231.32v99.66h-18.93l0.14-99.66H618.86z"/>
		<path class="st0" d="M662.99,258.65c5.03,0,9.77,0.97,14.24,2.92c4.46,1.95,8.35,4.58,11.67,7.9c3.32,3.32,5.95,7.21,7.9,11.67
			c1.94,4.46,2.92,9.25,2.92,14.38c0,2.75-0.28,5.41-0.85,7.97l-0.14,0.28h-36.16l-9.11-14.52h27.05c-1.33-3.99-3.54-7.26-6.62-9.82
			c-3.09-2.56-6.72-3.84-10.89-3.84c-2.56,0-4.98,0.52-7.26,1.56c-2.28,1.04-4.25,2.44-5.91,4.18c-1.66,1.75-2.97,3.83-3.91,6.24
			c-0.95,2.41-1.42,5.04-1.42,7.87c0,2.18,0.43,4.42,1.28,6.74c0.85,2.32,2.09,4.42,3.7,6.31c1.61,1.89,3.56,3.48,5.84,4.75
			s4.84,1.92,7.69,1.92c2.56,0,4.91-0.36,7.05-1.07c2.14-0.71,4.15-2.3,6.05-4.77l0.14-0.14l0.29,0.14l16.51,7.27l-0.29,0.29
			c-3.42,4.79-7.76,8.52-13.03,11.2c-5.27,2.68-10.84,4.02-16.73,4.02c-5.13,0-9.94-0.95-14.45-2.85c-4.51-1.9-8.42-4.51-11.75-7.83
			c-3.32-3.32-5.96-7.21-7.9-11.67c-1.95-4.46-2.92-9.21-2.92-14.24c0-5.13,0.97-9.92,2.92-14.38c1.94-4.46,4.58-8.35,7.9-11.67
			c3.32-3.32,7.24-5.96,11.75-7.9C653.05,259.62,657.86,258.65,662.99,258.65z"/>
		<path class="st0" d="M764.93,262.64l-1.71,2.85l-7.26,12.96l-0.14-0.14c-3.13-1.8-6.5-2.7-10.11-2.7c-2.47,0-4.79,0.4-6.98,1.21
			c-2.18,0.81-4.13,1.95-5.84,3.42c-1.71,1.47-3.16,3.2-4.34,5.2c-1.19,1.99-1.97,4.13-2.35,6.41v39.15h-19.36v-71.19h19.36v9.25
			c5.03-6.93,12.39-10.39,22.07-10.39c5.7,0,11.2,1.33,16.51,3.99H764.93z"/>
	</g>
	<g>
		<path class="st0" d="M232.93,362.63l2.83-2.77c0.73,1.08,2.09,1.73,3.57,1.73c0.99,0,1.96-0.36,1.96-1.08
			c0-0.91-1.8-1.7-3.52-2.47c-2.23-0.96-4.14-2.42-4.14-5.07c0-3.04,2.89-5.22,6.23-5.22c2.68,0,4.78,1.27,5.47,3l-2.69,2.6
			c-0.52-0.93-1.88-1.33-2.72-1.33c-0.96,0-1.65,0.49-1.65,1.09c0,0.81,1.24,1.07,3.14,1.87c2.75,1.16,4.57,2.84,4.57,5.43
			c0,3.35-3.12,5.43-6.64,5.43C236.45,365.85,233.82,364.57,232.93,362.63z"/>
		<path class="st0" d="M251.83,356.82c0-5.2,4.21-9.21,9.69-9.21c2.27,0.03,4.7,1.03,6.5,2.66l-2.68,3.45
			c-1.08-0.98-2.51-1.63-3.81-1.63c-2.71,0-4.96,2.06-4.96,4.76c0,2.73,2.36,4.74,4.87,4.74c1.47,0,2.79-0.7,3.93-1.71l2.66,3.55
			c-1.68,1.53-3.92,2.59-6.59,2.59C256.46,366,251.83,362.34,251.83,356.82z"/>
		<path class="st0" d="M285.74,363.56h-6.57l-0.89,2.05h-5.11l8.17-17.8h2.21l8.18,17.8h-5.12L285.74,363.56z M284.25,360.14
			l-1.8-4.17l-1.81,4.17H284.25z"/>
		<path class="st0" d="M309.36,361.22v4.39h-11.4v-17.59h4.67v13.2H309.36z"/>
		<path class="st0" d="M320.43,352.37v2.45h5.59v3.89h-5.59v2.52h6.79v4.37h-11.4v-17.59h11.4v4.34H320.43z"/>
		<path class="st0" d="M345.57,348.02h4.67v17.59h-4.67V348.02z"/>
		<path class="st0" d="M369.8,352.39h-4.21v13.22h-4.68v-13.22h-4.22v-4.36h13.11V352.39z"/>
		<path class="st0" d="M374.12,368.96c0.76,0,2.15-0.55,2.15-2.01c0-0.44-0.09-0.65-0.19-0.82c-1.06,0-2.17-1.05-2.17-2.46
			c0-1.52,1.28-2.87,3.05-2.87c1.85,0,3.02,1.47,3.02,3.74c0,2.57-1.49,5.25-4.06,5.25C374.86,369.8,374.12,369.26,374.12,368.96z"
			/>
		<path class="st0" d="M413.78,356.84c0,5.46-3.65,8.77-9.63,8.77h-5.74v-17.58l5.74-0.01C410.13,348,413.78,351.34,413.78,356.84z
			 M409.1,356.83c0-2.76-1.92-4.44-5.07-4.44h-1.07v8.83h1.11C407.19,361.21,409.1,359.56,409.1,356.83z"/>
		<path class="st0" d="M425.16,352.37v2.45h5.59v3.89h-5.59v2.52h6.79v4.37h-11.4v-17.59h11.4v4.34H425.16z"/>
		<path class="st0" d="M438.09,362.63l2.83-2.77c0.73,1.08,2.09,1.73,3.57,1.73c0.99,0,1.96-0.36,1.96-1.08
			c0-0.91-1.8-1.7-3.52-2.47c-2.23-0.96-4.14-2.42-4.14-5.07c0-3.04,2.89-5.22,6.23-5.22c2.68,0,4.78,1.27,5.47,3l-2.69,2.6
			c-0.52-0.93-1.88-1.33-2.72-1.33c-0.96,0-1.65,0.49-1.65,1.09c0,0.81,1.24,1.07,3.14,1.87c2.75,1.16,4.57,2.84,4.57,5.43
			c0,3.35-3.12,5.43-6.64,5.43C441.6,365.85,438.97,364.57,438.09,362.63z"/>
		<path class="st0" d="M457.74,348.02h4.67v17.59h-4.67V348.02z"/>
		<path class="st0" d="M488.01,357.22c0,5.35-4.04,8.8-9.03,8.8c-5.59,0-9.81-4.17-9.81-9.19c0-5.02,4.23-9.24,9.69-9.24
			c2.24,0.03,4.82,0.98,6.27,2.32l-2.59,3.55c-0.98-0.92-2.39-1.51-3.69-1.51c-2.62,0-4.92,2.15-4.92,4.87
			c0,2.47,1.97,4.87,5.23,4.87c2.13,0,3.64-1.03,3.71-2.71h-4.03v-3.48h9.02C487.96,356.1,488.01,356.66,488.01,357.22z"/>
		<path class="st0" d="M509.97,348v17.78h-1.48l-9.04-8.76v8.6h-4.67v-17.77h1.51l9.01,8.73V348H509.97z"/>
		<path class="st0" d="M528.78,348.02h4.67v17.59h-4.67V348.02z"/>
		<path class="st0" d="M553.01,352.39h-4.21v13.22h-4.68v-13.22h-4.22v-4.36h13.11V352.39z"/>
		<path class="st0" d="M557.33,368.96c0.76,0,2.15-0.55,2.15-2.01c0-0.44-0.09-0.65-0.19-0.82c-1.06,0-2.17-1.05-2.17-2.46
			c0-1.52,1.28-2.87,3.05-2.87c1.85,0,3.02,1.47,3.02,3.74c0,2.57-1.49,5.25-4.06,5.25C558.07,369.8,557.33,369.26,557.33,368.96z"
			/>
		<path class="st0" d="M580.86,356.82c0-5.2,4.21-9.21,9.69-9.21c2.27,0.03,4.7,1.03,6.5,2.66l-2.68,3.45
			c-1.08-0.98-2.51-1.63-3.81-1.63c-2.71,0-4.96,2.06-4.96,4.76c0,2.73,2.36,4.74,4.87,4.74c1.47,0,2.79-0.7,3.93-1.71l2.66,3.55
			c-1.68,1.53-3.92,2.59-6.59,2.59C585.5,366,580.86,362.34,580.86,356.82z"/>
		<path class="st0" d="M601.99,356.84c0-5.28,4.19-9.28,9.65-9.28c5.47,0,9.66,4,9.66,9.28c0,5.24-4.19,9.22-9.67,9.22
			C606.16,366.06,601.99,362.08,601.99,356.84z M616.57,356.81c0-2.72-2.14-4.81-4.93-4.81s-4.93,2.09-4.93,4.81
			c0,2.71,2.14,4.79,4.93,4.79S616.57,359.51,616.57,356.81z"/>
		<path class="st0" d="M627.14,362.63l2.83-2.77c0.73,1.08,2.09,1.73,3.57,1.73c0.99,0,1.96-0.36,1.96-1.08
			c0-0.91-1.8-1.7-3.52-2.47c-2.23-0.96-4.14-2.42-4.14-5.07c0-3.04,2.89-5.22,6.23-5.22c2.68,0,4.78,1.27,5.47,3l-2.69,2.6
			c-0.52-0.93-1.88-1.33-2.72-1.33c-0.96,0-1.65,0.49-1.65,1.09c0,0.81,1.24,1.07,3.14,1.87c2.75,1.16,4.57,2.84,4.57,5.43
			c0,3.35-3.12,5.43-6.64,5.43C630.65,365.85,628.02,364.57,627.14,362.63z"/>
		<path class="st0" d="M646.79,348.02h6.64c3.62,0,6.64,2.73,6.64,6.16c0,3.39-2.96,6.24-6.64,6.24h-1.97v5.18h-4.67V348.02z
			 M655.57,354.21c0-1.07-0.89-1.88-2.14-1.88h-1.97v3.79l1.97,0.01C654.69,356.14,655.57,355.29,655.57,354.21z"/>
		<path class="st0" d="M677.93,361.22v4.39h-11.4v-17.59h4.67v13.2H677.93z"/>
		<path class="st0" d="M695.65,363.56h-6.57l-0.89,2.05h-5.11l8.17-17.8h2.21l8.18,17.8h-5.12L695.65,363.56z M694.17,360.14
			l-1.8-4.17l-1.81,4.17H694.17z"/>
		<path class="st0" d="M708.18,358.02l-5.42-9.99h5.29l2.46,5.09l2.44-5.09h5.3l-5.43,9.99v7.59h-4.64V358.02z"/>
		<path class="st0" d="M735.76,348.02h4.67v17.59h-4.67V348.02z"/>
		<path class="st0" d="M760,352.39h-4.21v13.22h-4.68v-13.22h-4.22v-4.36H760V352.39z"/>
	</g>
	<g>
		<linearGradient id="SVGID_1_" gradientUnits="userSpaceOnUse" x1="58.5974" y1="376.8576" x2="181.3807" y2="267.2297">
			<stop  offset="0" style="stop-color:#662483"/>
			<stop  offset="1" style="stop-color:#D60B52"/>
		</linearGradient>
		<path class="st1" d="M89.58,283.03c-2.03-2.78-5.94-3.38-8.71-1.36c-2.78,2.03-3.39,5.94-1.36,8.71l57.17,78.31h15.44
			L89.58,283.03z"/>
		<linearGradient id="SVGID_2_" gradientUnits="userSpaceOnUse" x1="62.0355" y1="380.7081" x2="184.8187" y2="271.0803">
			<stop  offset="0" style="stop-color:#662483"/>
			<stop  offset="1" style="stop-color:#D60B52"/>
		</linearGradient>
		<path class="st2" d="M128.69,295.77c-2.93-3.93-4.48-8.6-4.48-13.52c0-12.48,10.15-22.63,22.63-22.63
			c9.12,0,17.3,5.43,20.85,13.82c0.65,1.53,1.86,2.72,3.4,3.35c1.54,0.63,3.24,0.61,4.77-0.04c0.34-0.15,0.67-0.32,0.98-0.52
			c1.67,2.24,3.4,4.55,5.18,6.89c0.29,1.05,0.53,2.01,0.73,2.9c0.3,1.39,0.55,2.77,0.74,4.11c0.2,1.35,0.35,2.74,0.44,4.13
			c0.11,1.61,0.15,2.94,0.14,4.18l0,0.35c0,0.57,0.11,1.14,0.32,1.67c0.7,1.77,1.33,3.2,1.97,4.5c0.73,1.48,1.51,2.93,2.32,4.3
			c0.29,0.5,0.6,1.01,0.94,1.54c-1.06-0.04-2.06-0.12-3.04-0.25c-1.73-0.21-3.53-0.56-5.34-1.05c-0.86-0.24-1.78-0.5-2.67-0.82
			c-0.8-0.28-1.64-0.6-2.66-1.02l-11.47-4.71l9.57,7.88c0.79,0.65,1.65,1.28,2.55,1.88c0.72,0.48,1.68,1.1,2.71,1.64
			c1.83,1,3.8,1.86,5.88,2.55c2.1,0.69,4.22,1.2,6.3,1.51c1.1,0.17,2.2,0.29,3.25,0.36c1.04,0.06,2.13,0.09,3.28,0.07
			c0.75-0.01,1.47-0.23,2.11-0.61c0.95-0.58,1.62-1.5,1.88-2.58c0.26-1.08,0.09-2.21-0.49-3.16l-0.2-0.33
			c-0.73-1.2-1.43-2.43-2.08-3.65c-0.6-1.14-1.19-2.37-1.81-3.76c-0.55-1.22-1.07-2.51-1.54-3.82c-0.39-1.1-0.69-2.01-0.96-2.85
			c0.12-1.51,0.19-2.86,0.2-4.13c0.01-1.7-0.04-3.4-0.16-5.05c-0.12-1.69-0.32-3.39-0.59-5.06c-0.27-1.66-0.61-3.33-1.02-4.99
			c-0.16-0.65-0.45-1.28-0.83-1.82l-0.11-0.15c-3.27-4.68-6.03-8.61-8.88-12.53c-1.43-1.99-2.95-4.1-4.53-6.22
			c-0.53-0.72-1.06-1.44-1.6-2.17c-0.98-1.34-1.97-2.68-2.97-4.01l-4.62-6.14l-4.69-6.09l-4.75-6.05l-5.01-6.26
			c-1.6-2-4.47-2.54-6.69-1.24c-2.48,1.45-3.32,4.64-1.87,7.12l1.37,2.35c1.14,1.97,2.32,4,3.51,5.98c1.19,2.01,2.46,4.11,4.02,6.65
			c-2.87-0.75-5.83-1.12-8.85-1.12c-16.49,0-30.46,11.31-34.15,26.96l-11.17-15.12c-2.04-2.76-5.96-3.35-8.72-1.31
			c-2.76,2.04-3.35,5.96-1.31,8.72l62.78,84.97c2.97,3.94,4.53,8.64,4.53,13.59c0,1.26-0.11,2.51-0.31,3.73h24.09L128.69,295.77z"/>
		<linearGradient id="SVGID_3_" gradientUnits="userSpaceOnUse" x1="63.0208" y1="384.6065" x2="185.804" y2="274.9786">
			<stop  offset="0" style="stop-color:#662483"/>
			<stop  offset="1" style="stop-color:#D60B52"/>
		</linearGradient>
		<path class="st3" d="M170.48,300.4c0.35,0.11,0.72,0.17,1.08,0.17c0.6,0,1.19-0.15,1.72-0.45l5.07-2.84
			c0.97-0.55,1.62-1.49,1.77-2.6c0.15-1.11-0.22-2.19-1.02-2.98l-11.75-11.59c-1.23-1.22-3.08-1.37-4.5-0.38
			c-1.42,1-1.9,2.79-1.17,4.36l6.68,14.44C168.78,299.42,169.55,300.1,170.48,300.4z"/>
		<linearGradient id="SVGID_4_" gradientUnits="userSpaceOnUse" x1="60.4008" y1="379.0133" x2="183.1841" y2="269.3854">
			<stop  offset="0" style="stop-color:#662483"/>
			<stop  offset="1" style="stop-color:#D60B52"/>
		</linearGradient>
		<path class="st4" d="M95.93,364.27c0.85,0.84,1.94,1.27,3.05,1.27c0.87,0,1.74-0.27,2.52-0.81c1.75-1.23,2.35-3.45,1.45-5.39
			l-10.05-21.71c-0.51-1.1-1.46-1.94-2.61-2.31c-1.15-0.37-2.41-0.25-3.47,0.35l-7.62,4.27c-1.2,0.68-2,1.85-2.19,3.22
			c-0.18,1.37,0.27,2.71,1.26,3.68L95.93,364.27z"/>
	</g>
</g>
</svg>
