<svg id="Livello_1" data-name="Livello 1" xmlns="http://www.w3.org/2000/svg" xmlns:xlink="http://www.w3.org/1999/xlink" viewBox="0 0 743.11 85.28"><defs><style>.cls-1{fill:#1d1d1b;}.cls-2{fill:url(#Sfumatura_senza_nome_37);}.cls-3{fill:url(#Sfumatura_senza_nome_37-2);}.cls-4{fill:url(#Sfumatura_senza_nome_37-3);}.cls-5{fill:url(#Sfumatura_senza_nome_37-4);}</style><linearGradient id="Sfumatura_senza_nome_37" x1="9.2" y1="77.99" x2="140.64" y2="27.33" gradientUnits="userSpaceOnUse"><stop offset="0" stop-color="#2fac66"/><stop offset="0.33" stop-color="#00a19a"/><stop offset="1" stop-color="#27348b"/></linearGradient><linearGradient id="Sfumatura_senza_nome_37-2" x1="51.61" y1="314.88" x2="183.05" y2="264.22" xlink:href="#Sfumatura_senza_nome_37"/><linearGradient id="Sfumatura_senza_nome_37-3" x1="8.04" y1="74.98" x2="139.48" y2="24.32" xlink:href="#Sfumatura_senza_nome_37"/><linearGradient id="Sfumatura_senza_nome_37-4" x1="2.33" y1="60.17" x2="133.77" y2="9.51" xlink:href="#Sfumatura_senza_nome_37"/></defs><path class="cls-1" d="M211.62,261a1.1,1.1,0,0,1,.33-.7,1,1,0,0,1,.73-.28h5.54a1,1,0,0,1,1,.84l7.82,21.81q2-5.49,4-10.9T235,260.85a1.08,1.08,0,0,1,1-.84h5.56a1,1,0,0,1,.73.29,1,1,0,0,1,.29.69q.82,7.77,1.67,15.49T245.9,292V292c0,.61-.32.91-1,.91h-4.3a.92.92,0,0,1-1-1l-2.26-21-7.38,20.39a1.67,1.67,0,0,1-.35.58.71.71,0,0,1-.51.26h-4a.72.72,0,0,1-.53-.25,1.71,1.71,0,0,1-.36-.59q-1.81-5.12-3.65-10.17t-3.7-10.2L214.59,292c0,.65-.34,1-1,1h-4.3a.86.86,0,0,1-1-1Z" transform="translate(-49.39 -255)"/><path class="cls-1" d="M249.31,292.1a7.92,7.92,0,0,1,.26-.82c.09-.25.18-.48.25-.69l11.95-29.74a1.36,1.36,0,0,1,.36-.54,1.09,1.09,0,0,1,.81-.3h3.57a1,1,0,0,1,.77.27,2.67,2.67,0,0,1,.34.46l.73,1.73,11.7,29.28a1,1,0,0,0,0,.23,1.58,1.58,0,0,1,0,.28c0,.44-.33.66-1,.66h-4.36a1.27,1.27,0,0,1-.76-.2,1.52,1.52,0,0,1-.44-.62l-.4-1-.84-2.13c-.28-.71-.55-1.42-.82-2.15H257.85c-.39,1-.76,2-1.12,2.92s-.67,1.7-.92,2.38a1.14,1.14,0,0,1-1.15.82h-4.44a1.3,1.3,0,0,1-.67-.15.52.52,0,0,1-.26-.47A1,1,0,0,1,249.31,292.1Zm15.43-23.65c-.8,2-1.59,4.16-2.38,6.34s-1.59,4.29-2.39,6.32h9.44Z" transform="translate(-49.39 -255)"/><path class="cls-1" d="M284.84,261.05c0-.69.32-1,1-1h13.57a10.49,10.49,0,0,1,4.19.84,10.78,10.78,0,0,1,3.4,2.29,10.61,10.61,0,0,1,3.11,7.53,10.18,10.18,0,0,1-.42,2.93,10.74,10.74,0,0,1-5.27,6.38l5.76,11.37a1.91,1.91,0,0,0,.15.44,1,1,0,0,1,.11.47c0,.44-.25.66-.77.66H304.5a1.05,1.05,0,0,1-1.07-.82l-5.36-10.64h-.76l-1.13,0h-4.89V292c0,.63-.34.95-1,.95h-4.46a1.08,1.08,0,0,1-.71-.23,1,1,0,0,1-.26-.72Zm18.68,9.65a5.05,5.05,0,0,0-.35-1.84,5.37,5.37,0,0,0-1-1.61,5.31,5.31,0,0,0-1.53-1.15,5,5,0,0,0-1.93-.5l-1.52,0h-5.9v10.28H298a8.07,8.07,0,0,0,.83,0,5.09,5.09,0,0,0,1.92-.49,4.73,4.73,0,0,0,1.49-1.11,5.19,5.19,0,0,0,1.31-3.49Z" transform="translate(-49.39 -255)"/><path class="cls-1" d="M340.42,262.4a1.49,1.49,0,0,1,.44.38.83.83,0,0,1,.18.53,1.07,1.07,0,0,1-.13.51l-2.15,3.66a1,1,0,0,1-.8.51,1,1,0,0,1-.31-.06,1.23,1.23,0,0,1-.35-.16,11.55,11.55,0,0,0-3-1.55,10.22,10.22,0,0,0-3.39-.56,10.08,10.08,0,0,0-4.14.85,10.3,10.3,0,0,0-3.26,2.32,10.63,10.63,0,0,0-2.14,3.44,12.07,12.07,0,0,0,0,8.43,10.54,10.54,0,0,0,2.14,3.42,10,10,0,0,0,3.26,2.31,10.08,10.08,0,0,0,4.14.84,10.58,10.58,0,0,0,3.43-.55,11.27,11.27,0,0,0,3-1.56,1.12,1.12,0,0,1,.37-.17l.32-.07a1,1,0,0,1,.77.49l2.2,3.7a1.09,1.09,0,0,1,.13.49.72.72,0,0,1-.19.51,2.61,2.61,0,0,1-.43.37,17.71,17.71,0,0,1-4.49,2.16,16.58,16.58,0,0,1-5.06.77,16.79,16.79,0,0,1-8.56-2.31,17.05,17.05,0,0,1-6.07-6.06,16.57,16.57,0,0,1-1.71-4A17,17,0,0,1,319,264.49a16.5,16.5,0,0,1,3.42-2.65,17.73,17.73,0,0,1,4.05-1.71,16.76,16.76,0,0,1,4.51-.61,16.51,16.51,0,0,1,5,.75A17,17,0,0,1,340.42,262.4Z" transform="translate(-49.39 -255)"/><path class="cls-1" d="M345.74,276.5a16.84,16.84,0,0,1,.6-4.5,17.16,17.16,0,0,1,1.7-4.06,17.65,17.65,0,0,1,2.65-3.43,16.64,16.64,0,0,1,3.43-2.65,17.47,17.47,0,0,1,4-1.71,16.9,16.9,0,0,1,9,0,17.47,17.47,0,0,1,4,1.71,17,17,0,0,1,6.09,6.08A17.16,17.16,0,0,1,379,272a16.55,16.55,0,0,1,.61,4.52A16.25,16.25,0,0,1,379,281a17.12,17.12,0,0,1-1.7,4,16.64,16.64,0,0,1-2.65,3.43,17.24,17.24,0,0,1-3.44,2.63,17.11,17.11,0,0,1-13.06,1.7,16.88,16.88,0,0,1-4.05-1.71,17.16,17.16,0,0,1-3.42-2.64,16.84,16.84,0,0,1-4.93-12Zm6.4-.05a10.79,10.79,0,0,0,.81,4.19,10.51,10.51,0,0,0,5.54,5.68,10.28,10.28,0,0,0,4.16.84,10.17,10.17,0,0,0,4.13-.84,10.52,10.52,0,0,0,5.57-5.68,11.29,11.29,0,0,0,0-8.35,10.67,10.67,0,0,0-2.23-3.4,10.54,10.54,0,0,0-3.34-2.3,10.17,10.17,0,0,0-4.13-.84,10.28,10.28,0,0,0-4.16.84,10.46,10.46,0,0,0-3.32,2.3,10.81,10.81,0,0,0-3,7.56Z" transform="translate(-49.39 -255)"/><path class="cls-1" d="M397,292.1a7.92,7.92,0,0,1,.26-.82c.1-.25.18-.48.25-.69l11.95-29.74a1.3,1.3,0,0,1,.37-.54,1.06,1.06,0,0,1,.8-.3h3.57a1,1,0,0,1,.77.27,2.67,2.67,0,0,1,.34.46l.73,1.73,11.7,29.28a1,1,0,0,0,0,.23,1.58,1.58,0,0,1,0,.28c0,.44-.33.66-1,.66h-4.36a1.22,1.22,0,0,1-.75-.2,1.45,1.45,0,0,1-.45-.62l-.4-1-.84-2.13c-.28-.71-.55-1.42-.82-2.15H405.58c-.39,1-.76,2-1.12,2.92s-.67,1.7-.92,2.38a1.14,1.14,0,0,1-1.15.82H398a1.3,1.3,0,0,1-.67-.15.52.52,0,0,1-.26-.47A1,1,0,0,1,397,292.1Zm15.43-23.65c-.8,2-1.59,4.16-2.38,6.34s-1.59,4.29-2.39,6.32h9.45Z" transform="translate(-49.39 -255)"/><path class="cls-1" d="M432.59,261a1,1,0,0,1,.26-.71.92.92,0,0,1,.72-.29h5.09a1.31,1.31,0,0,1,.59.14,1.44,1.44,0,0,1,.5.46q3.79,5.4,7.51,10.74t7.52,10.73V260.85a1,1,0,0,1,.33-.62,1,1,0,0,1,.64-.22H460a1.14,1.14,0,0,1,.76.27.84.84,0,0,1,.32.71v31c0,.61-.34.91-1,.91h-4.81a1.18,1.18,0,0,1-.91-.6q-3.9-5.64-7.76-11.29l-7.75-11.31V292a1.06,1.06,0,0,1-.23.73,1.08,1.08,0,0,1-.79.24h-4.25a1,1,0,0,1-.75-.25,1,1,0,0,1-.23-.7Z" transform="translate(-49.39 -255)"/><path class="cls-1" d="M466.17,261a.88.88,0,0,1,.29-.71,1,1,0,0,1,.73-.27H490.5a1.16,1.16,0,0,1,.72.24,1,1,0,0,1,.37.74v3.87a1.2,1.2,0,0,1-.28.78,1,1,0,0,1-.81.33h-8.42V291.9a1,1,0,0,1-.28.71,1,1,0,0,1-.76.31h-4.37a1,1,0,0,1-.72-.29.94.94,0,0,1-.32-.73V266h-8.44a1,1,0,0,1-.73-.28,1.06,1.06,0,0,1-.29-.83Z" transform="translate(-49.39 -255)"/><path class="cls-1" d="M495.46,276.5a16.86,16.86,0,0,1,2.31-8.56,17.27,17.27,0,0,1,2.65-3.43,16.58,16.58,0,0,1,3.42-2.65,17.73,17.73,0,0,1,4.05-1.71,16.87,16.87,0,0,1,9,0,17.73,17.73,0,0,1,4,1.71,16.91,16.91,0,0,1,3.43,2.65,16.56,16.56,0,0,1,2.65,3.43,17.62,17.62,0,0,1,1.71,4.06,16.55,16.55,0,0,1,.61,4.52,16.25,16.25,0,0,1-.61,4.5,17.58,17.58,0,0,1-1.71,4,16.3,16.3,0,0,1-2.65,3.43,17.18,17.18,0,0,1-3.43,2.63,16.93,16.93,0,0,1-17.11,0,16.61,16.61,0,0,1-3.42-2.64,16.8,16.8,0,0,1-4.94-12Zm6.41-.05a10.82,10.82,0,0,0,3,7.58,10.52,10.52,0,0,0,3.33,2.29,10.65,10.65,0,0,0,8.29,0,10.54,10.54,0,0,0,5.56-5.68,11.16,11.16,0,0,0,0-8.35,10.51,10.51,0,0,0-2.23-3.4,10.39,10.39,0,0,0-3.33-2.3,10.65,10.65,0,0,0-8.29,0,10.39,10.39,0,0,0-3.33,2.3,10.86,10.86,0,0,0-3,7.56Z" transform="translate(-49.39 -255)"/><path class="cls-1" d="M535.16,261a1,1,0,0,1,.25-.71.92.92,0,0,1,.72-.29h5.1a1.35,1.35,0,0,1,.59.14,1.42,1.42,0,0,1,.49.46q3.8,5.4,7.52,10.74t7.51,10.73V260.85a1.07,1.07,0,0,1,.33-.62,1,1,0,0,1,.65-.22h4.27a1.17,1.17,0,0,1,.77.27.87.87,0,0,1,.32.71v31c0,.61-.35.91-1,.91h-4.81a1.15,1.15,0,0,1-.91-.6q-3.9-5.64-7.77-11.29l-7.74-11.31V292a1,1,0,0,1-.24.73,1,1,0,0,1-.78.24h-4.26a1,1,0,0,1-.74-.25,1,1,0,0,1-.23-.7Z" transform="translate(-49.39 -255)"/><path class="cls-1" d="M570.86,261a1,1,0,0,1,.24-.69.91.91,0,0,1,.73-.29h4.4a1.08,1.08,0,0,1,.7.27.85.85,0,0,1,.33.71v31c0,.65-.34,1-1,1h-4.4a.85.85,0,0,1-1-1Z" transform="translate(-49.39 -255)"/><path class="cls-1" d="M583.16,276.5a17,17,0,0,1,2.3-8.56,17.65,17.65,0,0,1,2.65-3.43,16.64,16.64,0,0,1,3.43-2.65,17.47,17.47,0,0,1,4-1.71,16.9,16.9,0,0,1,9,0,17.47,17.47,0,0,1,4,1.71,17,17,0,0,1,3.44,2.65,16.77,16.77,0,0,1,4.35,7.49,16.55,16.55,0,0,1,.61,4.52,16.25,16.25,0,0,1-.61,4.5,16.76,16.76,0,0,1-7.79,10.09,16.62,16.62,0,0,1-4,1.7,16.94,16.94,0,0,1-13.07-1.71,17.16,17.16,0,0,1-3.42-2.64,16.84,16.84,0,0,1-4.93-12Zm6.4-.05a10.79,10.79,0,0,0,.81,4.19,10.51,10.51,0,0,0,5.54,5.68,10.28,10.28,0,0,0,4.16.84,10.17,10.17,0,0,0,4.13-.84,10.45,10.45,0,0,0,5.56-5.68,11.16,11.16,0,0,0,0-8.35,10.65,10.65,0,0,0-2.22-3.4,10.54,10.54,0,0,0-3.34-2.3,10.17,10.17,0,0,0-4.13-.84,10.28,10.28,0,0,0-4.16.84,10.46,10.46,0,0,0-3.32,2.3,10.81,10.81,0,0,0-3,7.56Z" transform="translate(-49.39 -255)"/><path class="cls-1" d="M636.72,261.05c0-.69.33-1,1-1h13.56a10.45,10.45,0,0,1,4.19.84,10.73,10.73,0,0,1,5.69,5.68,10.52,10.52,0,0,1,.83,4.14,10.18,10.18,0,0,1-.42,2.93,11.07,11.07,0,0,1-1.18,2.59,10.61,10.61,0,0,1-1.79,2.16,11,11,0,0,1-2.31,1.63L662,291.35a1.56,1.56,0,0,0,.16.44,1.08,1.08,0,0,1,.11.47q0,.66-.78.66h-5.14a1,1,0,0,1-1.06-.82L650,281.46h-.77l-1.13,0h-4.89V292c0,.63-.34.95-1,.95H637.7a1.06,1.06,0,0,1-.71-.23.91.91,0,0,1-.27-.72Zm18.69,9.65a4.86,4.86,0,0,0-.36-1.84,5.1,5.1,0,0,0-2.52-2.76,5.06,5.06,0,0,0-1.93-.5l-1.52,0h-5.91v10.28h6.69c.25,0,.53,0,.83,0a5,5,0,0,0,1.91-.49,4.66,4.66,0,0,0,1.5-1.11,5.29,5.29,0,0,0,1-1.6A5.16,5.16,0,0,0,655.41,270.7Z" transform="translate(-49.39 -255)"/><path class="cls-1" d="M673.71,279.56a10,10,0,0,0,.53,3.34,7.34,7.34,0,0,0,1.5,2.52,6.28,6.28,0,0,0,2.31,1.57,7.68,7.68,0,0,0,3,.55,8,8,0,0,0,3.1-.58,6.29,6.29,0,0,0,2.31-1.63,7.23,7.23,0,0,0,1.45-2.53,10.1,10.1,0,0,0,.49-3.24V261a.94.94,0,0,1,.29-.69,1,1,0,0,1,.73-.29h4.28a1.17,1.17,0,0,1,.79.29.9.9,0,0,1,.32.69V279.8a15,15,0,0,1-1.11,6,12,12,0,0,1-7.37,6.81,16.53,16.53,0,0,1-5.3.84,15.75,15.75,0,0,1-5.29-.89,12.78,12.78,0,0,1-4.38-2.63,12.39,12.39,0,0,1-3-4.28,14.53,14.53,0,0,1-1.11-5.85V261a1,1,0,0,1,.26-.67.79.79,0,0,1,.65-.31h4.52a1.14,1.14,0,0,1,.69.29.87.87,0,0,1,.35.69Z" transform="translate(-49.39 -255)"/><path class="cls-1" d="M720.12,268.79a1,1,0,0,1-.53-.15,3.61,3.61,0,0,1-.56-.39l0,0a10.51,10.51,0,0,0-1.09-.93,10.74,10.74,0,0,0-1.48-.95,10.24,10.24,0,0,0-1.76-.75,6,6,0,0,0-1.92-.32,8,8,0,0,0-2.19.28,5.06,5.06,0,0,0-1.6.76,3.32,3.32,0,0,0-1,1.11,3,3,0,0,0-.33,1.38,2.1,2.1,0,0,0,.5,1.39,4.53,4.53,0,0,0,1.35,1.07,13.88,13.88,0,0,0,2,.85c.74.26,1.52.52,2.33.77s1.86.58,2.77.9a28.4,28.4,0,0,1,2.63,1.1,20.42,20.42,0,0,1,2.34,1.35,9.29,9.29,0,0,1,1.87,1.71,7.78,7.78,0,0,1,1.24,2.15,7.48,7.48,0,0,1,.45,2.67,9.64,9.64,0,0,1-1,4.37,10,10,0,0,1-2.69,3.33,12.36,12.36,0,0,1-4,2.13,16.32,16.32,0,0,1-5,.74,14.41,14.41,0,0,1-3.39-.4,15.74,15.74,0,0,1-3.24-1.13,17,17,0,0,1-2.94-1.76,15.12,15.12,0,0,1-2.47-2.32v0l0-.09a1.6,1.6,0,0,1-.49-1,1,1,0,0,1,.13-.47,3.06,3.06,0,0,1,.4-.48l.73-.74c.23-.19.46-.4.71-.64s.51-.45.76-.64.48-.36.69-.49a1.13,1.13,0,0,1,.53-.2,1,1,0,0,1,.57.2,3.71,3.71,0,0,1,.45.38l.08.09h0a15.59,15.59,0,0,0,1.74,1.39,16.87,16.87,0,0,0,2,1.19,11.42,11.42,0,0,0,2,.82,6.74,6.74,0,0,0,1.9.3,8.37,8.37,0,0,0,2.28-.31,5.93,5.93,0,0,0,1.84-.88,4.16,4.16,0,0,0,1.22-1.36,3.63,3.63,0,0,0,.44-1.77,2.59,2.59,0,0,0-.57-1.68,5.49,5.49,0,0,0-1.51-1.22,12,12,0,0,0-2.1-.89c-.77-.25-1.55-.49-2.33-.71a34.5,34.5,0,0,1-4.73-1.78,14,14,0,0,1-3.38-2.13,7.55,7.55,0,0,1-2.71-6,8.26,8.26,0,0,1,3.19-6.66,11.5,11.5,0,0,1,3.68-1.88,16,16,0,0,1,4.81-.68,13.83,13.83,0,0,1,4.1.64,16.05,16.05,0,0,1,3.86,1.74q.52.33,1.08.75a12.75,12.75,0,0,1,1,.85,6.4,6.4,0,0,1,.77.84,1.3,1.3,0,0,1,.3.7,1.28,1.28,0,0,1-.14.55,2.11,2.11,0,0,1-.33.49l-.66.71v0l-.69.73a8.92,8.92,0,0,1-.71.68c-.24.2-.45.36-.64.5A1,1,0,0,1,720.12,268.79Z" transform="translate(-49.39 -255)"/><path class="cls-1" d="M749.39,268.79a1,1,0,0,1-.53-.15,3.58,3.58,0,0,1-.55-.39l0,0a11.42,11.42,0,0,0-1.08-.93,10.29,10.29,0,0,0-1.49-.95,9.61,9.61,0,0,0-1.76-.75,6,6,0,0,0-1.92-.32,8.08,8.08,0,0,0-2.19.28,5.06,5.06,0,0,0-1.6.76,3.29,3.29,0,0,0-1,1.11,3,3,0,0,0-.33,1.38,2,2,0,0,0,.5,1.39,4.53,4.53,0,0,0,1.35,1.07,13.39,13.39,0,0,0,2,.85c.74.26,1.51.52,2.33.77s1.85.58,2.77.9a28.19,28.19,0,0,1,2.62,1.1,18.84,18.84,0,0,1,2.34,1.35,9,9,0,0,1,1.87,1.71,7.54,7.54,0,0,1,1.24,2.15,7.26,7.26,0,0,1,.46,2.67,9.65,9.65,0,0,1-1,4.37,9.85,9.85,0,0,1-2.69,3.33,12.31,12.31,0,0,1-4,2.13,16.38,16.38,0,0,1-5,.74,14.41,14.41,0,0,1-3.39-.4,15.86,15.86,0,0,1-3.23-1.13,16.23,16.23,0,0,1-2.94-1.76,14.72,14.72,0,0,1-2.47-2.32v0l0-.09a1.63,1.63,0,0,1-.48-1,.9.9,0,0,1,.13-.47,2.59,2.59,0,0,1,.4-.48l.73-.74c.22-.19.46-.4.71-.64s.5-.45.75-.64.49-.36.7-.49a1.11,1.11,0,0,1,.52-.2,1,1,0,0,1,.58.2,4.48,4.48,0,0,1,.44.38l.09.09h0a14,14,0,0,0,1.74,1.39,16.75,16.75,0,0,0,2,1.19,11.83,11.83,0,0,0,2,.82,6.62,6.62,0,0,0,1.89.3,8.39,8.39,0,0,0,2.29-.31,6,6,0,0,0,1.84-.88,4.13,4.13,0,0,0,1.21-1.36,3.53,3.53,0,0,0,.45-1.77,2.54,2.54,0,0,0-.58-1.68,5.35,5.35,0,0,0-1.51-1.22,11.83,11.83,0,0,0-2.09-.89c-.78-.25-1.55-.49-2.34-.71a35,35,0,0,1-4.73-1.78,14.2,14.2,0,0,1-3.38-2.13,7.5,7.5,0,0,1-2.7-6,8.26,8.26,0,0,1,3.19-6.66,11.4,11.4,0,0,1,3.68-1.88,16,16,0,0,1,4.81-.68,13.83,13.83,0,0,1,4.1.64,16,16,0,0,1,3.85,1.74c.36.22.72.47,1.09.75a12.75,12.75,0,0,1,1,.85,6.27,6.27,0,0,1,.76.84,1.3,1.3,0,0,1,.3.7,1.26,1.26,0,0,1-.13.55,2.11,2.11,0,0,1-.33.49l-.67.71v0l-.69.73a7.49,7.49,0,0,1-.71.68c-.23.2-.45.36-.64.5A.92.92,0,0,1,749.39,268.79Z" transform="translate(-49.39 -255)"/><path class="cls-1" d="M758.64,276.5a17.25,17.25,0,0,1,.59-4.5,16.78,16.78,0,0,1,1.71-4.06,17.27,17.27,0,0,1,2.65-3.43,16.85,16.85,0,0,1,3.42-2.65,17.73,17.73,0,0,1,4-1.71,16.9,16.9,0,0,1,9,0,17.47,17.47,0,0,1,4,1.71,16.82,16.82,0,0,1,6.08,6.08,17.19,17.19,0,0,1,1.71,4.06,16.55,16.55,0,0,1,.61,4.52,16.25,16.25,0,0,1-.61,4.5,17.15,17.15,0,0,1-1.71,4,16.59,16.59,0,0,1-2.64,3.43,17.24,17.24,0,0,1-3.44,2.63,16.62,16.62,0,0,1-4,1.7A16.92,16.92,0,0,1,759.23,281,17.22,17.22,0,0,1,758.64,276.5Zm6.4-.05a10.79,10.79,0,0,0,.81,4.19,10.6,10.6,0,0,0,2.22,3.39,10.37,10.37,0,0,0,3.32,2.29,10.65,10.65,0,0,0,8.29,0,10.54,10.54,0,0,0,5.56-5.68,11.16,11.16,0,0,0,0-8.35,10.51,10.51,0,0,0-2.23-3.4,10.39,10.39,0,0,0-3.33-2.3,10.39,10.39,0,0,0-11.61,2.3,10.81,10.81,0,0,0-3,7.56Z" transform="translate(-49.39 -255)"/><path class="cls-1" d="M216.09,328.45a.8.8,0,0,1-.63.41H214.4a.49.49,0,0,1-.3-.09.48.48,0,0,1-.17-.32L210,309.13a.44.44,0,0,1,.11-.41.51.51,0,0,1,.39-.16h1.65a.36.36,0,0,1,.26.09.63.63,0,0,1,.15.33l3.09,15.89L225.45,309a1.09,1.09,0,0,1,.3-.33.56.56,0,0,1,.31-.09H228a.37.37,0,0,1,.25.08.26.26,0,0,1,.09.21.46.46,0,0,1-.1.28L223.32,317l1.62,7.86L234.75,309a1.43,1.43,0,0,1,.3-.33.53.53,0,0,1,.3-.09h2a.41.41,0,0,1,.25.08.26.26,0,0,1,.1.22.43.43,0,0,1-.1.27l-12.19,19.32a.8.8,0,0,1-.64.41h-1.08a.54.54,0,0,1-.31-.09.47.47,0,0,1-.16-.32l-1.72-8.51Z" transform="translate(-49.39 -255)"/><path class="cls-1" d="M246.46,308.56h13.38c.28,0,.42.12.42.34a.45.45,0,0,1,0,.13l-.37,1.71a.55.55,0,0,1-.61.48h-11.2l-1.19,5.64h8.66c.31,0,.47.12.47.35a.39.39,0,0,1,0,.13l-.35,1.68a.59.59,0,0,1-.66.47h-8.66l-1.42,6.69h11.18c.29,0,.43.11.43.34a.44.44,0,0,1,0,.13l-.37,1.73a.55.55,0,0,1-.61.48H242.15c-.25,0-.38-.1-.38-.32a.71.71,0,0,1,0-.16L245.89,309A.53.53,0,0,1,246.46,308.56Z" transform="translate(-49.39 -255)"/><path class="cls-1" d="M269.47,308.56h8.45a4.49,4.49,0,0,1,2.2.55,4,4,0,0,1,1.53,1.52,4.33,4.33,0,0,1,.55,2.2,6.42,6.42,0,0,1-2.9,5.25,3.57,3.57,0,0,1,1.5,1.55,5,5,0,0,1,.53,2.33,6.15,6.15,0,0,1-.13,1.27,6.59,6.59,0,0,1-1.37,2.78,7.91,7.91,0,0,1-2.49,2.08,6,6,0,0,1-2.91.77h-9.27c-.26,0-.39-.1-.39-.32a.63.63,0,0,1,0-.16L268.9,309A.53.53,0,0,1,269.47,308.56Zm-1.61,17.82h6.77a3.49,3.49,0,0,0,1.8-.5,4.41,4.41,0,0,0,1.4-1.24,3.68,3.68,0,0,0,.7-1.48,5.39,5.39,0,0,0,.09-.93,2.38,2.38,0,0,0-.72-1.91,2.72,2.72,0,0,0-1.83-.62h-6.8Zm2-9.28h5.75a4,4,0,0,0,1.69-.37,4,4,0,0,0,2.21-2.69,4.57,4.57,0,0,0,.13-1c0-1.33-.87-2-2.61-2h-5.91Z" transform="translate(-49.39 -255)"/><path class="cls-1" d="M307.44,308.58h6.5a9,9,0,0,1,4.42,1.07,7.63,7.63,0,0,1,3,2.93,8.26,8.26,0,0,1,1.05,4.13,10,10,0,0,1-.21,2,12.18,12.18,0,0,1-2.46,5.06,13.67,13.67,0,0,1-4.5,3.7,11.69,11.69,0,0,1-5.49,1.37h-6.6c-.26,0-.39-.1-.39-.32a.63.63,0,0,1,0-.16l4.11-19.33A.52.52,0,0,1,307.44,308.58Zm12.28,8.33a6.29,6.29,0,0,0-.73-3,5.21,5.21,0,0,0-2.14-2.07,6.89,6.89,0,0,0-3.36-.76h-4.4l-3.27,15.34h3.82a9.71,9.71,0,0,0,4.34-1,10.69,10.69,0,0,0,3.6-2.78,8.64,8.64,0,0,0,1.94-3.85A9.2,9.2,0,0,0,319.72,316.91Z" transform="translate(-49.39 -255)"/><path class="cls-1" d="M334,308.56h13.37c.28,0,.43.12.43.34a.39.39,0,0,1,0,.13l-.37,1.71a.55.55,0,0,1-.61.48h-11.2l-1.19,5.64h8.66c.32,0,.47.12.47.35a.45.45,0,0,1,0,.13l-.36,1.68a.58.58,0,0,1-.65.47h-8.67l-1.42,6.69h11.18c.29,0,.43.11.43.34a.49.49,0,0,1,0,.13l-.37,1.73a.56.56,0,0,1-.62.48H329.7c-.25,0-.38-.1-.38-.32s0-.12,0-.16L333.45,309A.51.51,0,0,1,334,308.56Z" transform="translate(-49.39 -255)"/><path class="cls-1" d="M360.69,328.88h-1.11a.44.44,0,0,1-.29-.09.57.57,0,0,1-.16-.32l-4-19.3a.62.62,0,0,1,0-.15.42.42,0,0,1,.15-.34.53.53,0,0,1,.35-.12h1.77c.25,0,.39.15.43.44l3.05,15.68,9.6-15.68a.79.79,0,0,1,.63-.42h2a.38.38,0,0,1,.24.07.22.22,0,0,1,.1.2.69.69,0,0,1-.13.34l-12,19.28A.7.7,0,0,1,360.69,328.88Z" transform="translate(-49.39 -255)"/><path class="cls-1" d="M382.15,308.56h13.37c.28,0,.43.12.43.34a.39.39,0,0,1,0,.13l-.37,1.71a.55.55,0,0,1-.61.48h-11.2l-1.19,5.64h8.66c.32,0,.47.12.47.35a.45.45,0,0,1,0,.13l-.36,1.68a.58.58,0,0,1-.65.47H382l-1.42,6.69h11.18c.29,0,.43.11.43.34,0,.05,0,.1,0,.13l-.37,1.73a.56.56,0,0,1-.62.48H377.83c-.25,0-.38-.1-.38-.32s0-.12,0-.16L381.58,309A.51.51,0,0,1,382.15,308.56Z" transform="translate(-49.39 -255)"/><path class="cls-1" d="M404.78,308.72a.5.5,0,0,1,.37-.14h1.71a.31.31,0,0,1,.35.34.92.92,0,0,1,0,.18l-3.69,17.29h10c.31,0,.46.11.46.34a.39.39,0,0,1,0,.13l-.31,1.52a.58.58,0,0,1-.64.48H400.84c-.26,0-.38-.1-.38-.32a.71.71,0,0,1,0-.16l4.1-19.28A.68.68,0,0,1,404.78,308.72Z" transform="translate(-49.39 -255)"/><path class="cls-1" d="M424.78,313.51a14.16,14.16,0,0,1,4.63-3.8,11.79,11.79,0,0,1,5.53-1.4,8.81,8.81,0,0,1,4.37,1.06,7.63,7.63,0,0,1,3,2.95,8.46,8.46,0,0,1,1.05,4.21,10.87,10.87,0,0,1-.24,2.2,12.6,12.6,0,0,1-2.5,5.23,14,14,0,0,1-4.55,3.76,11.88,11.88,0,0,1-5.51,1.39,9,9,0,0,1-4.39-1.06,7.64,7.64,0,0,1-3-2.93,8.2,8.2,0,0,1-1.08-4.19,11,11,0,0,1,.24-2.2A12.26,12.26,0,0,1,424.78,313.51Zm0,7.05a6.41,6.41,0,0,0,.73,3.09,5.17,5.17,0,0,0,2.09,2.13,6.46,6.46,0,0,0,3.21.77A9.18,9.18,0,0,0,435,325.5a10.77,10.77,0,0,0,3.52-2.84,9.24,9.24,0,0,0,2.12-5.8,6.46,6.46,0,0,0-.72-3.09,5.19,5.19,0,0,0-2.06-2.12,6.37,6.37,0,0,0-3.18-.77,9.54,9.54,0,0,0-4.37,1.05,10.17,10.17,0,0,0-3.47,2.84,9.32,9.32,0,0,0-2.09,5.79Z" transform="translate(-49.39 -255)"/><path class="cls-1" d="M454.68,308.68a.6.6,0,0,1,.38-.12h7.34a4.35,4.35,0,0,1,2.54.74,4.39,4.39,0,0,1,1.59,1.92,6,6,0,0,1,.54,2.52,7.07,7.07,0,0,1-.13,1.3,7.85,7.85,0,0,1-1.36,2.93,8.28,8.28,0,0,1-2.55,2.31,6.39,6.39,0,0,1-3.25.89h-5.25L453,328.35a.55.55,0,0,1-.57.51h-1.69c-.26,0-.39-.11-.39-.34a.88.88,0,0,1,0-.17L454.49,309A.52.52,0,0,1,454.68,308.68Zm.41,9.9h4.59a4.81,4.81,0,0,0,3.77-1.83,4.54,4.54,0,0,0,.86-1.8,5.38,5.38,0,0,0,.11-1,2.92,2.92,0,0,0-.68-2,2.59,2.59,0,0,0-2.05-.78h-5Z" transform="translate(-49.39 -255)"/><path class="cls-1" d="M478,308.56h13.37c.29,0,.43.12.43.34a.39.39,0,0,1,0,.13l-.37,1.71a.54.54,0,0,1-.61.48H479.59l-1.2,5.64h8.67c.31,0,.46.12.46.35a.45.45,0,0,1,0,.13l-.36,1.68a.58.58,0,0,1-.65.47h-8.66l-1.43,6.69H487.6c.28,0,.42.11.42.34a.49.49,0,0,1,0,.13l-.37,1.73a.56.56,0,0,1-.61.48H473.67c-.26,0-.39-.1-.39-.32a.63.63,0,0,1,0-.16L477.41,309A.53.53,0,0,1,478,308.56Z" transform="translate(-49.39 -255)"/><path class="cls-1" d="M500.39,321.51l-1.46,6.87a.52.52,0,0,1-.56.48h-1.71c-.25,0-.37-.1-.37-.32a.71.71,0,0,1,0-.16L500.41,309a.53.53,0,0,1,.56-.47h8.28a5.14,5.14,0,0,1,2.67.68,4.55,4.55,0,0,1,1.73,1.83,5.71,5.71,0,0,1,.59,2.6,7.34,7.34,0,0,1-.15,1.44,7.16,7.16,0,0,1-1,2.34,9.59,9.59,0,0,1-1.77,2.11,8.37,8.37,0,0,1-2.28,1.47l2,7.27a.31.31,0,0,1,0,.11.46.46,0,0,1-.47.45h-1.73a.41.41,0,0,1-.28-.08.68.68,0,0,1-.18-.31l-1.78-7Zm.52-2.5h5.41a5.31,5.31,0,0,0,2.28-.51,5.4,5.4,0,0,0,1.84-1.4,4.65,4.65,0,0,0,1-2,5.52,5.52,0,0,0,.14-1.19,2.81,2.81,0,0,0-.79-2.11,3.39,3.39,0,0,0-2.42-.76h-5.84Z" transform="translate(-49.39 -255)"/><polygon class="cls-2" points="55.8 75.8 55.86 75.86 90.56 41.15 90.56 30.78 55.8 65.55 55.8 75.8"/><path class="cls-3" d="M141.52,273.3a8.53,8.53,0,0,0-3.47-3.61c.07.17.52,1.24,0,1.92s-2.26,1-3.87-.2a44.32,44.32,0,0,1-8.07.8,43.83,43.83,0,0,1-9.29-.92,13.71,13.71,0,0,0,2.47,2.58,13.53,13.53,0,0,0,2.43,1.55c-1.41.77-2.86,1.62-4.33,2.57a68.58,68.58,0,0,0-12.25,10.11,27.88,27.88,0,0,1,14.54-5.91l-23.6,23.6v10.37l29.81-29.81a5.53,5.53,0,0,1,3.23.33,12.73,12.73,0,0,1,3.9-5.69,13.19,13.19,0,0,1,9.29-2.84A8.6,8.6,0,0,0,141.52,273.3Z" transform="translate(-49.39 -255)"/><polygon class="cls-4" points="97.13 0 86.77 0 129.41 42.64 86.77 85.28 97.13 85.28 139.77 42.64 97.13 0"/><polygon class="cls-5" points="53 85.28 10.37 42.64 53 0 42.64 0 0 42.64 42.64 85.28 53 85.28"/></svg>